<?xml version="1.0" standalone="no"?>
<!DOCTYPE svg PUBLIC "-//W3C//DTD SVG 1.1//EN" "http://www.w3.org/Graphics/SVG/1.1/DTD/svg11.dtd" >
<svg xmlns="http://www.w3.org/2000/svg">
<metadata></metadata>
<defs>
<font id="flama_semicondensedbook" horiz-adv-x="1017" >
<font-face units-per-em="2048" ascent="1638" descent="-410" />
<missing-glyph horiz-adv-x="368" />
<glyph unicode="&#xfb01;" horiz-adv-x="1077" d="M68 922v118h159v179q0 127 68.5 196.5t187.5 69.5q63 0 121 -15v-116q-34 10 -102 10q-131 0 -131 -143v-181h209v-118h-209v-922h-144v922h-159zM780 0v1042h144v-1042h-144zM780 1221v219h144v-219h-144z" />
<glyph unicode="&#xfb02;" horiz-adv-x="1196" d="M68 922v118h159v179q0 127 68.5 196.5t187.5 69.5q63 0 121 -15v-116q-34 10 -102 10q-131 0 -131 -143v-181h209v-118h-209v-922h-144v922h-159zM778 205v1255h144v-1231q0 -116 120 -116q38 0 88 8v-113q-59 -20 -135 -20q-103 0 -160 56t-57 161z" />
<glyph horiz-adv-x="2048" />
<glyph horiz-adv-x="2048" />
<glyph unicode="&#xd;" horiz-adv-x="2048" />
<glyph unicode=" "  horiz-adv-x="368" />
<glyph unicode="&#x09;" horiz-adv-x="368" />
<glyph unicode="&#xa0;" horiz-adv-x="368" />
<glyph unicode="!" horiz-adv-x="473" d="M166 0v227h139v-227h-139zM166 956v504h141v-504l-24 -555h-93z" />
<glyph unicode="&#x22;" horiz-adv-x="673" d="M121 1260v202h141v-202l-20 -230h-99zM416 1260v202h139v-202l-20 -230h-101z" />
<glyph unicode="#" horiz-adv-x="1046" d="M61 401l11 99h182l74 497h-191l15 95h186l55 372h90l-51 -372h287l53 372h90l-53 -372h184l-12 -95h-180l-72 -497h189l-11 -99h-190l-53 -405h-97l56 405h-287l-53 -405h-95l56 405h-183zM350 500h283l78 497h-289z" />
<glyph unicode="$" horiz-adv-x="983" d="M74 252l88 92q81 -70 155 -101.5t183 -31.5q114 0 181 58.5t67 154.5q0 88 -45.5 141t-139.5 90q-1 1 -95 42t-95 42q-230 108 -230 320q0 122 81 213.5t212 109.5v154h127v-147q190 -15 311 -127l-75 -101q-77 59 -143 84t-150 25q-94 0 -157.5 -51t-63.5 -140 q0 -74 41.5 -127.5t134.5 -89.5l182 -82q126 -55 188 -136.5t62 -203.5q0 -136 -90.5 -232.5t-239.5 -113.5v-170h-127v166q-220 17 -362 162z" />
<glyph unicode="%" horiz-adv-x="1421" d="M100 967v282q0 115 69.5 176.5t176.5 61.5t178.5 -60.5t71.5 -177.5v-286q0 -109 -73.5 -171.5t-176.5 -62.5q-111 0 -178.5 63.5t-67.5 174.5zM209 952q0 -58 35.5 -94.5t103.5 -36.5q64 0 100.5 39t36.5 94v312q0 53 -37 91t-100 38q-66 0 -102.5 -37.5t-36.5 -91.5 v-314zM297 -6l750 1485h98l-748 -1485h-100zM821 209v278q0 115 70.5 181.5t177.5 66.5t177.5 -60.5t70.5 -176.5v-287q0 -109 -73.5 -171.5t-176.5 -62.5q-109 0 -177.5 60t-68.5 172zM932 203q0 -58 35 -94.5t100 -36.5q66 0 102.5 39.5t36.5 91.5v313q0 51 -37 90 t-102 39q-64 0 -99.5 -37.5t-35.5 -91.5v-313z" />
<glyph unicode="&#x26;" horiz-adv-x="1335" d="M119 365q0 133 83.5 250t248.5 180q-170 206 -170 352q0 45 11.5 90t39 90.5t68.5 80.5t106.5 57t146.5 22q160 0 257.5 -91.5t97.5 -215.5q0 -290 -355 -422l318 -402q57 107 100 295l129 -18q-41 -197 -149 -375l206 -258h-178l-133 170q-167 -199 -411 -199 q-190 0 -303 112t-113 282zM264 377q0 -123 83.5 -202t213.5 -79q95 0 174.5 41t136.5 115l-356 455q-128 -44 -190 -134t-62 -196zM422 1159q0 -15 2 -30.5t8.5 -33t11.5 -30.5t17.5 -34.5t19.5 -33t25 -37t25.5 -36.5t30 -42t30.5 -42q146 59 211 136t65 193 q0 94 -63.5 152.5t-161.5 58.5q-104 0 -162.5 -65.5t-58.5 -155.5z" />
<glyph unicode="'" horiz-adv-x="382" d="M121 1260v202h141v-202l-20 -230h-99z" />
<glyph unicode="(" horiz-adv-x="468" d="M111 557q0 240 62 482.5t181 437.5l88 -4q-53 -130 -84.5 -218.5t-60.5 -202t-42 -233.5t-13 -264q0 -481 202 -920l-90 -6q-118 178 -180.5 436.5t-62.5 491.5z" />
<glyph unicode=")" horiz-adv-x="468" d="M25 -365q202 432 202 920q0 144 -13 264t-42 233.5t-60.5 202t-84.5 218.5l90 4q118 -195 178.5 -437t60.5 -483q0 -234 -61.5 -492t-177.5 -436z" />
<glyph unicode="*" horiz-adv-x="741" d="M43 1251l49 76l232 -137v270h94v-270l227 137l51 -76l-235 -139l155 -219l-77 -51l-168 235l-168 -235l-78 51l151 219z" />
<glyph unicode="+" horiz-adv-x="1105" d="M162 600v100h342v355h100v-355h340v-100h-340v-354h-100v354h-342z" />
<glyph unicode="," horiz-adv-x="415" d="M133 6v221h150v-215l-72 -239h-74l56 233h-60z" />
<glyph unicode="-" horiz-adv-x="581" d="M78 549v115h426v-115h-426z" />
<glyph unicode="." horiz-adv-x="415" d="M133 0v227h150v-227h-150z" />
<glyph unicode="/" horiz-adv-x="618" d="M-4 -367l453 1837h106l-446 -1837h-113z" />
<glyph unicode="0" horiz-adv-x="1073" d="M117 350v762q0 119 60 205.5t153.5 127t206.5 40.5q186 0 302.5 -95.5t116.5 -275.5v-764q0 -120 -59 -207t-151.5 -127.5t-206.5 -40.5q-181 0 -301.5 98.5t-120.5 276.5zM268 352q0 -115 72 -182.5t201 -67.5q130 0 196 69t66 183v766q0 104 -71 173t-193 69 q-126 0 -198.5 -69t-72.5 -179v-762z" />
<glyph unicode="1" horiz-adv-x="669" d="M94 1380l242 84h88v-1464h-148v1317l-172 -53z" />
<glyph unicode="2" horiz-adv-x="937" d="M80 1083v64q0 162 104.5 250t272.5 88q176 0 267 -100t91 -271q0 -190 -82 -361t-241 -374l-183 -244v-4h543v-131h-743v90l274 369q137 183 210 336.5t73 300.5v24q-2 109 -58.5 174.5t-169.5 65.5q-104 0 -162.5 -55.5t-58.5 -151.5v-70h-137z" />
<glyph unicode="3" d="M115 301v78h141v-70q0 -99 74 -155t180 -56q129 0 192.5 77.5t63.5 223.5q0 68 -19 121.5t-48 85t-67 51.5t-72 27.5t-68 7.5h-134v125h125q117 0 186.5 71.5t69.5 209.5q0 71 -21 124t-56.5 82.5t-77 43.5t-88.5 14q-103 0 -166.5 -52t-63.5 -161v-62h-139v64 q0 156 102.5 245t280.5 89q95 0 168 -29t117 -80t66 -115.5t22 -138.5q0 -127 -57.5 -227t-172.5 -129v-6q121 -24 193 -126.5t72 -238.5q0 -189 -116 -304.5t-290 -115.5q-193 0 -295 92.5t-102 233.5z" />
<glyph unicode="4" horiz-adv-x="1044" d="M86 383v119l506 958h158l-514 -952h417v289l142 92v-381h176v-125h-176v-383h-142v383h-567z" />
<glyph unicode="5" horiz-adv-x="1011" d="M115 289v90h143v-72q0 -99 70 -155t176 -56q52 0 95.5 13t81.5 43t59.5 85t21.5 132v178q0 258 -246 258q-126 0 -233 -103l-136 13l39 747h656v-133h-539l-24 -510q118 107 292 107q68 0 127 -21t106.5 -62t75 -110.5t27.5 -159.5v-219q0 -179 -115.5 -279t-295.5 -100 q-182 0 -281.5 91t-99.5 223z" />
<glyph unicode="6" horiz-adv-x="1034" d="M117 348l2 766q0 176 113 274.5t290 98.5q173 0 280 -83.5t107 -223.5v-84h-145v69q0 93 -69.5 147t-178.5 54q-117 0 -181.5 -67.5t-64.5 -170.5v-397q44 87 134 135.5t190 48.5q138 0 233 -88.5t95 -226.5v-270q0 -165 -114 -260t-292 -95q-176 0 -287.5 103.5 t-111.5 269.5zM270 340q0 -103 69 -172.5t189 -69.5q116 0 182 64t66 157v261q0 61 -20.5 106t-55.5 69t-74.5 35t-84.5 11q-108 0 -189.5 -78.5t-81.5 -190.5v-192z" />
<glyph unicode="7" horiz-adv-x="942" d="M76 1331v131h776v-106q-108 -119 -191 -290t-131.5 -355.5t-72.5 -364.5t-23 -346h-153q1 222 40 440.5t101.5 388t131.5 298t138 204.5h-616z" />
<glyph unicode="8" horiz-adv-x="1032" d="M113 315v144q0 100 59.5 178t153.5 113q-90 27 -144.5 103t-54.5 159v135q0 82 32 147.5t86.5 106.5t124 62.5t146.5 21.5q169 0 279 -83.5t110 -242.5v-135q0 -89 -52.5 -165t-147.5 -107q94 -29 155.5 -106t61.5 -183v-146q0 -160 -114.5 -251t-293.5 -91 q-180 0 -290.5 91.5t-110.5 248.5zM262 315q0 -97 72.5 -158t181.5 -61q115 0 185.5 60.5t70.5 165.5v145q0 108 -78 168.5t-178 60.5q-102 0 -178 -62t-76 -165v-154zM272 1018q0 -68 39.5 -118.5t94 -73.5t112.5 -23q98 0 171 61t73 156v141q0 96 -74.5 150.5t-175.5 54.5 q-95 0 -167.5 -59t-72.5 -154v-135z" />
<glyph unicode="9" horiz-adv-x="1034" d="M113 864v277q0 163 113 254.5t290 91.5q176 0 287.5 -103t111.5 -268v-764q0 -177 -113 -277t-290 -100q-173 0 -280 85t-107 225v86h145v-70q0 -93 70 -148t178 -55q116 0 181 67.5t65 170.5v393q-51 -88 -136 -134t-186 -46q-142 0 -235.5 88.5t-93.5 226.5zM258 883 q0 -62 20 -106.5t55 -68t74 -34t85 -10.5q108 0 190 78.5t82 191.5v192q0 96 -70.5 169t-187.5 73t-182.5 -64.5t-65.5 -156.5v-264z" />
<glyph unicode=":" horiz-adv-x="415" d="M133 0v227h150v-227h-150zM133 788v226h150v-226h-150z" />
<glyph unicode=";" horiz-adv-x="415" d="M133 6v221h150v-215l-72 -239h-74l56 233h-60zM133 788v226h150v-226h-150z" />
<glyph unicode="&#x3c;" horiz-adv-x="1105" d="M178 608v88l701 328l49 -100l-582 -271q46 -24 289 -142t287 -140l-50 -101z" />
<glyph unicode="=" horiz-adv-x="1105" d="M158 434v117h788v-117h-788zM158 752v114h788v-114h-788z" />
<glyph unicode="&#x3e;" horiz-adv-x="1105" d="M176 924l51 100l701 -328v-88l-695 -338l-53 103l578 280q-51 26 -301.5 141.5t-280.5 129.5z" />
<glyph unicode="?" horiz-adv-x="946" d="M119 1100v33q0 169 99 259.5t259 90.5q164 0 260.5 -94t96.5 -261q1 -64 -14 -120.5t-44.5 -105.5t-57 -83.5t-69.5 -77.5q-4 -4 -21 -23.5t-22 -25.5t-19.5 -23.5t-20 -26.5t-16.5 -26t-15.5 -30t-11 -30t-9.5 -34.5t-4 -36.5v-84h-133v78q5 98 41.5 166t107.5 152 q35 39 52 59t43.5 56t38.5 64t22 66.5t10 79.5q0 113 -59 176.5t-166 63.5q-94 0 -156.5 -52t-62.5 -161v-49h-129zM371 0v227h149v-227h-149z" />
<glyph unicode="@" horiz-adv-x="1816" d="M121 522q1 254 109.5 456.5t304 316.5t442.5 114q212 0 376.5 -82.5t257.5 -239.5t93 -364q0 -117 -32.5 -218.5t-86.5 -172t-124.5 -122.5t-144.5 -79t-149 -33h-123l29 183h-4q-64 -108 -146 -156.5t-167 -48.5q-115 0 -178.5 57.5t-63.5 157.5q0 38 6 65 q61 352 70 418q18 100 73.5 170.5t126.5 101.5t150 31q85 0 150 -44.5t79 -129.5h2l27 166h135l-145 -866q173 18 290 164t117 368q0 139 -52.5 252t-140.5 183t-197.5 107.5t-229.5 37.5q-163 0 -301 -60t-233.5 -164.5t-149 -249.5t-53.5 -313q0 -217 83.5 -368 t231.5 -232q169 -88 395 -88q187 0 387 51l21 -90q-91 -33 -203.5 -49t-206.5 -16q-258 0 -457 102q-175 95 -273 267.5t-95 416.5zM655 328q0 -71 34.5 -108.5t119.5 -37.5q96 0 185 89t112 216l33 209q4 36 4 58q0 106 -51.5 164.5t-133.5 58.5q-93 0 -157.5 -63 t-83.5 -171l-55 -354q-7 -49 -7 -61z" />
<glyph unicode="A" horiz-adv-x="1163" d="M55 0l441 1464h182l432 -1464h-154l-133 461h-489l-135 -461h-144zM365 582h423l-208 725h-2z" />
<glyph unicode="B" horiz-adv-x="1140" d="M160 0v1460h479q171 0 269 -94.5t98 -259.5q0 -132 -72.5 -231t-188.5 -121v-4q137 -21 215 -120t78 -233q0 -193 -110.5 -295t-278.5 -102h-489zM311 125h295q130 0 203.5 72.5t73.5 216.5q0 70 -25 123.5t-68.5 84.5t-97 46.5t-114.5 15.5h-267v-559zM311 811h256 q56 0 106.5 16t91.5 48t65 85.5t24 122.5q0 127 -71 191.5t-185 64.5h-287v-528z" />
<glyph unicode="C" horiz-adv-x="1150" d="M121 406v645q0 196 132 315t345 119q195 0 315.5 -104t120.5 -267v-113h-137v82q0 123 -78 199t-227 76q-151 0 -234.5 -87t-83.5 -229v-618q0 -162 87 -241t237 -79q141 0 220 72t79 189v96h137v-109q0 -171 -119.5 -274t-316.5 -103q-214 0 -345.5 111t-131.5 320z" />
<glyph unicode="D" horiz-adv-x="1193" d="M160 0v1460h471q200 0 320 -102t120 -299v-635q0 -204 -120.5 -314t-319.5 -110h-471zM311 129h299q155 0 231.5 84t76.5 211v614q0 130 -77 211.5t-227 81.5h-303v-1202z" />
<glyph unicode="E" horiz-adv-x="1054" d="M160 0v1460h792v-131h-641v-508h510v-129h-510v-561h641v-131h-792z" />
<glyph unicode="F" horiz-adv-x="1019" d="M160 0v1460h792v-129h-641v-514h508v-127h-508v-690h-151z" />
<glyph unicode="G" horiz-adv-x="1183" d="M121 406v636q0 197 133.5 321t343.5 124q198 0 322 -104.5t124 -266.5v-104h-139v84q0 116 -83.5 190t-225.5 74q-152 0 -238 -91.5t-86 -232.5v-620q0 -148 86.5 -230t241.5 -82q160 0 233.5 76.5t73.5 200.5v254h-305v121h449v-394q0 -172 -124 -279.5t-329 -107.5 q-213 0 -345 111t-132 320z" />
<glyph unicode="H" horiz-adv-x="1249" d="M160 0v1460h151v-637h629v637h152v-1460h-152v686h-629v-686h-151z" />
<glyph unicode="I" horiz-adv-x="471" d="M160 0v1460h151v-1460h-151z" />
<glyph unicode="J" horiz-adv-x="1067" d="M70 369v147h147v-135q0 -277 277 -277q75 0 130.5 23.5t85.5 64t44 86t14 97.5v1085h152v-1052q0 -196 -108 -314.5t-318 -118.5q-199 0 -311.5 100.5t-112.5 293.5z" />
<glyph unicode="K" horiz-adv-x="1150" d="M160 0v1460h151v-770l602 770h166l-444 -563l448 -897h-172l-385 776l-215 -272v-504h-151z" />
<glyph unicode="L" horiz-adv-x="1026" d="M160 0v1460h151v-1329h641v-131h-792z" />
<glyph unicode="M" horiz-adv-x="1409" d="M160 0v1460h196l353 -739h4l348 739h188v-1460h-141v1251h-4l-346 -743h-109l-348 741h-6v-1249h-135z" />
<glyph unicode="N" horiz-adv-x="1245" d="M160 0v1460h153l635 -1155h4v1155h135v-1460h-133l-655 1206h-4v-1206h-135z" />
<glyph unicode="O" horiz-adv-x="1200" d="M121 416v608q0 217 132.5 340t346.5 123q103 0 189 -27t151.5 -79.5t102 -136.5t36.5 -193v-611q0 -148 -63 -254.5t-170 -158.5t-246 -52q-103 0 -189 27t-151.5 79.5t-102 138t-36.5 196.5zM274 426q0 -146 86.5 -230.5t241.5 -84.5q150 0 237 87t87 230v621 q0 143 -88.5 224t-243.5 81q-152 0 -236 -88.5t-84 -243.5v-596z" />
<glyph unicode="P" horiz-adv-x="1122" d="M160 0v1460h440q102 0 181.5 -33t129.5 -92t75.5 -135.5t25.5 -167.5q0 -204 -116.5 -327t-328.5 -123h-256v-582h-151zM311 705h224q156 0 241.5 82.5t85.5 238.5q0 136 -73.5 221.5t-208.5 85.5h-269v-628z" />
<glyph unicode="Q" horiz-adv-x="1200" d="M121 416v608q0 217 132.5 340t346.5 123q103 0 189 -27t151.5 -79.5t102 -136.5t36.5 -193v-611q0 -137 -51.5 -234t-148.5 -147l233 -116l-78 -136l-321 183q-66 -15 -113 -15q-103 0 -189 27t-151.5 79.5t-102 138t-36.5 196.5zM274 426q0 -146 86.5 -230.5 t241.5 -84.5q150 0 237 87t87 230v621q0 143 -88.5 224t-243.5 81q-152 0 -236 -88.5t-84 -243.5v-596z" />
<glyph unicode="R" horiz-adv-x="1163" d="M160 0v1460h440q208 0 319 -112t111 -304q0 -165 -82 -275t-237 -134l362 -635h-166l-344 612h-252v-612h-151zM311 733h254q314 0 314 301q0 140 -73.5 220.5t-225.5 80.5h-269v-602z" />
<glyph unicode="S" horiz-adv-x="1071" d="M59 166l101 104q63 -57 109 -88t115 -52t155 -21q128 0 203 70.5t75 180.5q0 58 -18 104.5t-53.5 80.5t-70 56t-85.5 46l-184 88q-275 128 -275 369q0 164 114.5 273.5t301.5 109.5q265 0 403 -168l-96 -96q-75 70 -146.5 102.5t-170.5 32.5q-112 0 -181 -61t-69 -177 q0 -86 50 -143t159 -109l170 -82q150 -72 227.5 -168.5t77.5 -232.5q0 -181 -126 -295.5t-323 -114.5q-291 0 -463 191z" />
<glyph unicode="T" horiz-adv-x="1071" d="M47 1331v129h979v-129h-412v-1331h-151v1331h-416z" />
<glyph unicode="U" horiz-adv-x="1230" d="M150 408v1052h151v-1032q0 -88 27 -153t74 -101t102 -53t119 -17q147 0 232 86q81 82 81 217v13v1040h145v-1044q1 -205 -130 -323t-341 -118q-94 0 -174.5 24.5t-145.5 74.5t-102.5 135.5t-37.5 198.5z" />
<glyph unicode="V" horiz-adv-x="1091" d="M51 1460h156l344 -1274h2l346 1274h141l-413 -1466h-162z" />
<glyph unicode="W" horiz-adv-x="1576" d="M63 1460h152l240 -1202h4l256 1202h164l247 -1198h4l238 1198h143l-311 -1466h-149l-258 1233h-7l-260 -1233h-151z" />
<glyph unicode="X" horiz-adv-x="1024" d="M43 0l377 754l-346 706h164l280 -588l283 588h151l-352 -704l381 -756h-162l-315 637l-311 -637h-150z" />
<glyph unicode="Y" horiz-adv-x="1048" d="M57 1460h158l320 -696l311 696h147l-393 -844v-616h-154v618z" />
<glyph unicode="Z" horiz-adv-x="1015" d="M96 0v98l647 1239h-630v123h809v-104l-646 -1227h637v-129h-817z" />
<glyph unicode="[" horiz-adv-x="538" d="M147 -360v1820h347v-98h-213v-1624h213v-98h-347z" />
<glyph unicode="\" horiz-adv-x="618" d="M57 1470h105l452 -1837h-110z" />
<glyph unicode="]" horiz-adv-x="538" d="M45 -262h213v1624h-213v98h346v-1820h-346v98z" />
<glyph unicode="^" horiz-adv-x="858" d="M199 391l184 742h113l161 -742h-102l-119 588q-129 -582 -131 -588h-106z" />
<glyph unicode="_" horiz-adv-x="944" d="M0 -78h944v-102h-944v102z" />
<glyph unicode="`" horiz-adv-x="532" d="M51 1479h154l184 -299h-115z" />
<glyph unicode="a" horiz-adv-x="960" d="M94 274q0 87 35.5 154t93 104t122 55.5t132.5 18.5h199v178q0 89 -54.5 134t-150.5 45q-90 0 -152.5 -43t-62.5 -123v-60h-129v64q0 127 101.5 196.5t258.5 69.5q95 0 168.5 -28t119.5 -91.5t46 -156.5v-527q0 -9 10 -264h-133l-8 166h-4q-24 -53 -62 -92t-81.5 -59 t-83 -29t-78.5 -9q-122 0 -204.5 77.5t-82.5 219.5zM242 295q0 -100 54 -153.5t134 -53.5q102 0 174 73.5t72 184.5v162h-176q-50 0 -92 -9.5t-81.5 -31.5t-62 -66t-22.5 -106z" />
<glyph unicode="b" horiz-adv-x="997" d="M152 0v1460h143v-583h6q40 92 124 142t169 50q141 0 216 -88t75 -219v-453q0 -155 -91 -244.5t-225 -89.5q-88 0 -172 54t-112 143h-4l-2 -172h-127zM295 383q0 -125 74 -212t178 -87q89 0 141.5 56.5t52.5 162.5v451q0 93 -50.5 145.5t-149.5 52.5q-93 0 -169.5 -86.5 t-76.5 -216.5v-266z" />
<glyph unicode="c" horiz-adv-x="919" d="M113 344v350q0 177 100 275t262 98q164 0 255 -81t91 -212v-55h-133v51q0 31 -10.5 60.5t-33 58.5t-66 47t-101.5 18q-114 0 -167.5 -70t-53.5 -182v-362q0 -250 229 -250q60 0 102.5 18t63 48.5t29 60.5t8.5 64v49h133v-60q0 -131 -89 -213t-255 -82q-171 0 -267.5 94.5 t-96.5 274.5z" />
<glyph unicode="d" horiz-adv-x="995" d="M113 279v460q0 152 91.5 240t221.5 88q87 0 162.5 -45.5t109.5 -128.5h2v567h146v-1460h-131l-4 186h-6q-49 -108 -131 -159.5t-173 -51.5q-139 0 -213.5 86t-74.5 218zM256 297q0 -97 48.5 -151t146.5 -54q101 0 176 88t75 226v260q0 121 -77 209t-172 88 q-87 0 -142 -54.5t-55 -171.5v-440z" />
<glyph unicode="e" horiz-adv-x="946" d="M113 352v318q0 187 106 292t273 105q165 0 258.5 -98.5t93.5 -270.5v-204h-586v-144q0 -254 262 -254q123 0 254 76l53 -96q-128 -101 -327 -101q-179 0 -283 93.5t-104 283.5zM258 598h449v113q0 49 -12 90.5t-37 77.5t-70.5 56.5t-106.5 20.5q-57 0 -101 -21t-70 -56.5 t-39 -78t-13 -89.5v-113z" />
<glyph unicode="f" horiz-adv-x="641" d="M68 922v118h159v179q0 127 68.5 196.5t187.5 69.5q63 0 121 -15v-116q-34 10 -102 10q-131 0 -131 -143v-181h209v-118h-209v-922h-144v922h-159z" />
<glyph unicode="g" horiz-adv-x="993" d="M113 317v437q0 99 47 172.5t117.5 108t152.5 34.5q86 0 169 -46.5t116 -137.5h2l6 159h123v-1044q0 -184 -104 -284.5t-287 -100.5q-202 0 -334 80l49 115q136 -76 276 -76q121 0 188.5 61.5t67.5 181.5v238h-2q-43 -98 -123 -146.5t-169 -48.5q-140 0 -217.5 83 t-77.5 214zM256 340q0 -205 199 -205q99 0 172 87.5t73 223.5v240q0 119 -75.5 198t-167.5 79q-90 0 -145.5 -60t-55.5 -168v-395z" />
<glyph unicode="h" horiz-adv-x="1019" d="M152 0v1460h143v-590h4q44 97 128.5 147t186.5 50q120 0 191.5 -76t71.5 -190v-801h-144v758q0 103 -44 148.5t-136 45.5q-97 0 -177.5 -85.5t-80.5 -200.5v-666h-143z" />
<glyph unicode="i" horiz-adv-x="446" d="M152 0v1042h143v-1042h-143zM152 1221v219h143v-219h-143z" />
<glyph unicode="j" horiz-adv-x="468" d="M-18 -260q28 -4 59 -4q77 0 105 41.5t28 120.5v1144h143v-1171q0 -256 -243 -256q-48 0 -92 6v119zM174 1221v219h143v-219h-143z" />
<glyph unicode="k" horiz-adv-x="911" d="M152 0v1460h143v-934l393 516h164l-281 -356l293 -686h-151l-246 578l-172 -218v-360h-143z" />
<glyph unicode="l" horiz-adv-x="561" d="M150 205v1255h143v-1231q0 -116 121 -116q38 0 88 8v-113q-59 -20 -135 -20q-103 0 -160 56t-57 161z" />
<glyph unicode="m" horiz-adv-x="1599" d="M152 0v1042h135v-180h2q45 102 132.5 153.5t192.5 51.5q100 0 168 -59t86 -144h2q49 101 135.5 152t190.5 51q116 0 188 -74.5t72 -189.5v-803h-143v762q0 101 -46 145.5t-134 44.5q-95 0 -175 -79t-81 -189v-684h-144v772q-3 180 -180 180q-97 0 -177.5 -83t-80.5 -197 v-672h-143z" />
<glyph unicode="n" d="M152 0v1042h135v-176h2q49 101 135 151t190 50q116 0 189.5 -76.5t73.5 -189.5v-801h-144v762q0 101 -46 145.5t-134 44.5q-97 0 -177.5 -83t-80.5 -197v-672h-143z" />
<glyph unicode="o" horiz-adv-x="970" d="M113 350v338q0 178 103 278.5t267 100.5q171 0 273 -96.5t102 -276.5v-338q0 -185 -102 -283t-269 -98q-172 0 -273 96.5t-101 278.5zM256 352q0 -260 233 -260q226 0 226 262v348q0 112 -57.5 182t-174.5 70t-172 -72.5t-55 -189.5v-340z" />
<glyph unicode="p" horiz-adv-x="997" d="M152 -365v1407h135v-172h4q44 98 128 148.5t171 50.5q139 0 217 -86t78 -215v-451q0 -158 -86 -250t-230 -92q-84 0 -162.5 49.5t-107.5 135.5h-4v-525h-143zM295 391q0 -132 74 -219.5t184 -87.5q85 0 136.5 55t51.5 162v447q0 91 -49 147.5t-151 56.5q-104 0 -175 -87 t-71 -222v-252z" />
<glyph unicode="q" horiz-adv-x="993" d="M113 283v456q0 152 92 240t223 88q90 0 173.5 -49.5t113.5 -138.5h4l8 165h119v-1409h-144v539h-4q-54 -100 -134 -149.5t-161 -49.5q-138 0 -214 86.5t-76 221.5zM256 293q0 -93 46 -147t142 -54q95 0 176.5 86t81.5 213v271q0 125 -76 212t-175 87q-89 0 -142 -58 t-53 -166v-444z" />
<glyph unicode="r" horiz-adv-x="698" d="M152 0v1042h135v-180h2q53 110 125 151.5t170 41.5q42 0 69 -6v-129q-39 6 -86 6q-53 0 -100.5 -16t-86 -48t-61.5 -85t-24 -122v-655h-143z" />
<glyph unicode="s" horiz-adv-x="860" d="M68 127l88 98q64 -64 129 -98.5t145 -34.5q96 0 157.5 44t61.5 126q0 79 -42.5 124t-137.5 79l-123 45q-114 44 -167.5 111t-53.5 167q0 50 19.5 98.5t56.5 90t99.5 67t141.5 25.5q93 0 176 -27t134 -77l-80 -105q-111 94 -234 94q-80 0 -130 -41.5t-50 -107.5 t37.5 -105.5t126.5 -72.5l127 -52q235 -89 235 -292q0 -96 -51 -167.5t-130.5 -106t-174.5 -34.5q-224 0 -360 152z" />
<glyph unicode="t" horiz-adv-x="708" d="M66 924v114h170v303h143v-303h268v-114h-268v-693q0 -63 33 -91.5t102 -28.5q57 0 125 22v-119q-88 -32 -172 -32q-46 0 -84 9t-72.5 30.5t-54.5 63.5t-20 101v738h-170z" />
<glyph unicode="u" d="M145 242v800h144v-757q0 -102 44 -147.5t134 -45.5q103 0 181.5 84t78.5 201v665h143v-1042h-129l-6 178h-4q-39 -94 -126.5 -148.5t-190.5 -54.5q-119 0 -194 74.5t-75 192.5z" />
<glyph unicode="v" horiz-adv-x="860" d="M45 1042h154l233 -847h2l244 847h135l-319 -1044h-140z" />
<glyph unicode="w" horiz-adv-x="1359" d="M59 1042h150l184 -811h6l217 811h146l207 -811h4l196 811h134l-269 -1044h-135l-213 870h-6l-225 -870h-136z" />
<glyph unicode="x" horiz-adv-x="841" d="M31 0l311 539l-283 503h158l219 -407l219 407h144l-287 -499l301 -543h-154l-243 444l-244 -444h-141z" />
<glyph unicode="y" horiz-adv-x="872" d="M47 1042h152l250 -823h2l247 823h131l-364 -1163q-77 -268 -285 -268q-74 0 -129 16l10 121q65 -14 109 -14q57 0 92.5 31.5t63.5 107.5l47 160z" />
<glyph unicode="z" horiz-adv-x="837" d="M84 0v90l500 840h-488v112h656l-2 -96l-492 -833h494v-113h-668z" />
<glyph unicode="{" horiz-adv-x="548" d="M84 541v96q46 9 65 30t19 62v598q0 65 33.5 99t91.5 34h221v-92h-186q-19 0 -28 -10.5t-9 -36.5v-588q0 -106 -78 -135v-6q42 -19 60 -51.5t18 -89.5v-674q0 -45 37 -45h186v-92h-225q-56 0 -88.5 32t-32.5 95v673q0 48 -19.5 72.5t-64.5 28.5z" />
<glyph unicode="|" horiz-adv-x="509" d="M207 -106v1572h96v-1572h-96z" />
<glyph unicode="}" horiz-adv-x="548" d="M35 -268h186q37 0 37 45v674q0 57 18 89.5t60 51.5v6q-78 29 -78 135v592q0 47 -37 47h-186v90h221q58 0 91.5 -33t33.5 -98v-602q0 -41 18 -62t64 -30v-96q-45 -4 -63.5 -28.5t-18.5 -72.5v-673q0 -63 -33 -95t-92 -32h-221v92z" />
<glyph unicode="~" horiz-adv-x="1105" d="M147 547q12 79 54 131.5t112 52.5q50 0 239 -34.5t239 -34.5q33 0 53 23.5t35 68.5l79 -19q-15 -82 -56.5 -133t-110.5 -51q-47 0 -240 35t-242 35q-37 0 -54 -22.5t-28 -66.5z" />
<glyph unicode="&#xa1;" horiz-adv-x="473" d="M164 164l22 553h97l22 -553v-508h-141v508zM166 893v223h141v-223h-141z" />
<glyph unicode="&#xa2;" horiz-adv-x="954" d="M125 389v348q0 159 84.5 255t228.5 108v151h115v-151q137 -13 211 -92t74 -191v-72h-133v70q0 31 -10 61t-32.5 58t-66 45.5t-102.5 17.5q-117 0 -171.5 -71.5t-54.5 -184.5v-352q0 -117 53 -187.5t173 -70.5q60 0 103.5 18t65.5 48t32 60t10 62v70h133v-78 q0 -116 -73 -192.5t-212 -89.5v-162h-115v160q-152 11 -232.5 103.5t-80.5 258.5z" />
<glyph unicode="&#xa3;" horiz-adv-x="1073" d="M104 0v123h148v569h-135v94h135v340q0 94 30.5 165t82.5 112.5t116 61.5t137 20q154 0 242 -76.5t88 -220.5v-90h-125v92q0 92 -56 137t-153 45q-96 0 -156.5 -55t-60.5 -172v-359h383v-94h-383v-569h584l-29 -123h-848z" />
<glyph unicode="&#xa4;" horiz-adv-x="688" d="M68 924l61 61l68 -67q68 47 143 47q85 0 145 -43l70 69l63 -61l-69 -68q51 -77 51 -153t-51 -146l69 -67l-59 -62l-67 68q-67 -43 -146 -43q-76 0 -143 39l-68 -70l-63 64l69 71q-51 66 -51 150q0 82 47 141zM178 707q0 -69 47 -120.5t117 -51.5q78 0 123 48.5t45 129.5 q0 76 -48 126t-116 50q-78 0 -123 -48.5t-45 -133.5z" />
<glyph unicode="&#xa5;" horiz-adv-x="1040" d="M51 1460h164l313 -692l312 692h149l-368 -801h315v-102h-338v-557h-154v557h-335v102h313z" />
<glyph unicode="&#xa6;" horiz-adv-x="514" d="M205 -102v741h104v-741h-104zM205 778v684h104v-684h-104z" />
<glyph unicode="&#xa7;" horiz-adv-x="937" d="M90 131v55h109v-30q0 -100 74 -156.5t200 -56.5q115 0 184.5 56.5t69.5 147.5q0 27 -7 50t-15 39t-27 32t-30 24.5t-37.5 20.5t-35.5 15t-38 14q-35 12 -172 57q-242 81 -242 273q0 74 44.5 145.5t133.5 118.5q-97 49 -136.5 105.5t-39.5 140.5q0 121 89 202.5t259 81.5 q163 0 254.5 -74t91.5 -206v-47h-104v45q0 88 -63.5 141t-174.5 53q-108 0 -173.5 -50t-65.5 -140q0 -123 165 -187l181 -71q53 -19 93 -40t79 -53t60.5 -76.5t21.5 -98.5q0 -80 -46.5 -148t-138.5 -111q94 -36 144 -98t47 -143q0 -138 -105.5 -226t-277.5 -88 q-53 0 -103.5 9t-99.5 30t-86 53t-59.5 81t-22.5 110zM236 678q0 -68 49 -113.5t108 -62.5l152 -51q82 24 129 76.5t47 125.5q0 110 -164 174q-148 58 -162 60q-63 -27 -111 -82.5t-48 -126.5z" />
<glyph unicode="&#xa8;" horiz-adv-x="727" d="M143 1231v213h129v-213h-129zM459 1231v213h127v-213h-127z" />
<glyph unicode="&#xa9;" horiz-adv-x="1712" d="M115 715q0 165 53 312.5t147.5 257t234 173.5t302.5 64q173 0 315.5 -64.5t236 -175.5t144.5 -257t51 -310q0 -133 -31.5 -254t-94.5 -223t-151.5 -177t-209 -117t-260.5 -42q-175 0 -315.5 61t-232.5 170.5t-140.5 257.5t-48.5 324zM209 715q0 -171 49 -310.5t136 -232 t206 -142.5t260 -50q137 0 255.5 52.5t204 147t134.5 233t49 302.5q0 170 -51 309.5t-139.5 230.5t-206.5 140t-254 49q-135 0 -253 -51.5t-204.5 -144t-136 -230.5t-49.5 -303zM506 508v391q0 169 94.5 263.5t255.5 94.5q159 0 248.5 -78t89.5 -206v-105h-117v105 q0 30 -11 58.5t-34 56t-67.5 44.5t-104.5 17q-118 0 -172.5 -71.5t-54.5 -184.5v-381q0 -250 227 -250q60 0 104.5 17.5t67.5 46t34 57.5t11 59v103h117v-105q0 -127 -90 -206.5t-248 -79.5q-167 0 -258.5 91.5t-91.5 262.5z" />
<glyph unicode="&#xaa;" horiz-adv-x="665" d="M74 975q0 56 24.5 99.5t64 67t83 35t88.5 11.5h112v104q0 55 -31 83t-89 28q-55 0 -90 -25t-35 -73v-39h-103v37q0 87 67.5 133.5t172.5 46.5q98 0 158.5 -46.5t60.5 -138.5v-340q0 -45 8 -161h-106q0 40 -6 94q-29 -57 -82.5 -83t-108.5 -26q-78 0 -133 50.5t-55 142.5z M109 584v106h456v-106h-456zM190 989q0 -60 32.5 -91.5t84.5 -31.5q58 0 98.5 43.5t40.5 108.5v100h-106q-150 0 -150 -129z" />
<glyph unicode="&#xab;" horiz-adv-x="851" d="M53 557l238 330l84 -56l-162 -272l164 -274l-84 -52zM406 557l235 330l84 -56l-162 -272l166 -274l-86 -52z" />
<glyph unicode="&#xac;" horiz-adv-x="1038" d="M86 590v98h842v-348h-109v250h-733z" />
<glyph unicode="&#xad;" horiz-adv-x="581" d="M78 549v115h426v-115h-426z" />
<glyph unicode="&#xae;" horiz-adv-x="1048" d="M84 1067q0 201 122 333t316 132q198 0 320.5 -130.5t122.5 -334.5q0 -126 -53.5 -230t-156.5 -167.5t-235 -63.5q-199 0 -317.5 132.5t-118.5 328.5zM158 1067q0 -90 30.5 -166t81 -126t115.5 -77.5t135 -27.5q73 0 140.5 28t119 78t82.5 125.5t31 165.5 q0 182 -109 292.5t-264 110.5q-153 0 -257.5 -110t-104.5 -293zM348 793v569h191q86 0 135 -46.5t49 -121.5q0 -61 -34 -106t-93 -62l149 -233h-88l-141 225h-86v-225h-82zM430 1081h94q117 0 117 109q0 47 -32 76.5t-89 29.5h-90v-215z" />
<glyph unicode="&#xaf;" horiz-adv-x="778" d="M113 1235v108h553v-108h-553z" />
<glyph unicode="&#xb0;" horiz-adv-x="587" d="M86 1280q0 85 59.5 146t145.5 61q91 0 151 -60t60 -143q0 -86 -61 -145.5t-150 -59.5q-88 0 -146.5 59t-58.5 142zM168 1280q0 -55 35 -93t88 -38q56 0 93.5 38t37.5 93q0 57 -37 97t-94 40q-54 0 -88.5 -39t-34.5 -98z" />
<glyph unicode="&#xb1;" horiz-adv-x="1105" d="M162 129v102h780v-102h-780zM162 715v102h342v340h100v-340h340v-102h-340v-332h-100v332h-342z" />
<glyph unicode="&#xb2;" horiz-adv-x="614" d="M84 1360v37q0 96 62 149t163 53q107 0 165 -59t58 -158q0 -54 -13 -102.5t-43.5 -100t-55 -84.5t-72.5 -94l-104 -133h305v-90h-449v68l170 207q78 103 117 175t39 146v6q-2 59 -31.5 94t-89.5 35q-56 0 -87.5 -31.5t-31.5 -84.5v-33h-102z" />
<glyph unicode="&#xb3;" horiz-adv-x="649" d="M84 952v33h102v-27q0 -55 38 -85.5t93 -30.5q65 0 99.5 40t34.5 115q0 43 -15 74.5t-38.5 47.5t-45.5 23t-41 7h-73v78h65q62 0 98.5 37t36.5 110q0 69 -36.5 102t-88.5 33q-56 0 -89.5 -28.5t-33.5 -85.5v-25h-100v31q0 93 60.5 145.5t166.5 52.5q112 0 170 -60t58 -148 q0 -68 -32 -124.5t-95 -72.5v-4q68 -17 107.5 -73t39.5 -128q0 -112 -67.5 -173.5t-175.5 -61.5q-117 0 -177.5 55t-60.5 143z" />
<glyph unicode="&#xb4;" horiz-adv-x="532" d="M141 1180l181 299h151l-219 -299h-113z" />
<glyph unicode="&#xb5;" horiz-adv-x="1040" d="M152 -365v1409h143v-753q0 -99 54 -148t145 -49q97 0 170 81t73 196v673h146v-745q0 -55 26.5 -98.5t75.5 -61.5l-2 -145q-175 55 -207 188q-39 -97 -115 -152t-178 -55q-76 0 -132.5 32t-86.5 89h-4l37 -450z" />
<glyph unicode="&#xb6;" horiz-adv-x="1107" d="M119 963q0 132 45 244.5t132.5 182.5t199.5 70h520v-98h-146v-1528h-92v1528h-225v-1528h-92v653q-87 10 -153.5 51.5t-107 107t-61 145.5t-20.5 172z" />
<glyph unicode="&#xb7;" horiz-adv-x="415" d="M133 575v224h150v-224h-150z" />
<glyph unicode="&#xb8;" horiz-adv-x="690" d="M152 -299q91 -25 165 -25q103 0 103 68q0 63 -117 72l-67 4l49 194h75l-34 -133q57 -2 100 -14.5t73.5 -43.5t30.5 -77q0 -64 -59.5 -106.5t-153.5 -42.5q-86 0 -165 24v80z" />
<glyph unicode="&#xb9;" horiz-adv-x="489" d="M92 1542l162 51h61v-815h-108v705l-101 -27z" />
<glyph unicode="&#xba;" horiz-adv-x="690" d="M98 1016v225q0 114 67.5 175t176.5 61q112 0 179 -58.5t67 -175.5v-227q0 -114 -68 -173t-176 -59q-115 0 -180.5 58t-65.5 174zM117 584v106h456v-106h-456zM211 1012q0 -66 32 -104t101 -38q129 0 129 144v235q0 64 -30.5 103t-98.5 39q-67 0 -100 -40.5t-33 -103.5 v-235z" />
<glyph unicode="&#xbb;" horiz-adv-x="851" d="M53 836l86 51l238 -324l-236 -330l-84 54l164 274zM406 836l86 51l237 -324l-235 -330l-86 54l163 274z" />
<glyph unicode="&#xbc;" horiz-adv-x="1460" d="M160 1413l162 51h61v-815h-109v705l-100 -27zM266 -6l776 1476h91l-777 -1476h-90zM825 209v82l291 524h115l-297 -518h207v145l108 78v-223h99v-88h-99v-209h-108v209h-316z" />
<glyph unicode="&#xbd;" horiz-adv-x="1460" d="M156 1413l161 51h62v-815h-109v705l-100 -27zM264 -6l776 1476h90l-776 -1476h-90zM885 582v36q0 96 62 149.5t163 53.5q107 0 165 -59t58 -158q0 -54 -13 -102.5t-43.5 -100t-55 -84.5t-72.5 -94l-105 -133h306v-90h-449v68l170 206q78 103 117 175.5t39 146.5v6 q-2 59 -31.5 94t-89.5 35q-56 0 -87.5 -32t-31.5 -85v-32h-102z" />
<glyph unicode="&#xbe;" horiz-adv-x="1460" d="M117 823v33h102v-27q0 -55 38 -85.5t93 -30.5q64 0 98.5 40t34.5 115q0 43 -15 74.5t-38 47.5t-45 23t-41 7h-74v78h66q62 0 98.5 37t36.5 110q0 69 -36.5 102t-88.5 33q-56 0 -89.5 -28.5t-33.5 -85.5v-25h-100v31q0 93 60.5 145.5t166.5 52.5q112 0 170 -60t58 -148 q0 -68 -32 -124.5t-95 -72.5v-4q68 -17 107.5 -73t39.5 -128q0 -112 -68 -173.5t-176 -61.5q-116 0 -176.5 55t-60.5 143zM336 -6l776 1476h90l-776 -1476h-90zM840 209v82l290 524h115l-297 -518h207v145l109 78v-223h98v-88h-98v-209h-109v209h-315z" />
<glyph unicode="&#xbf;" horiz-adv-x="946" d="M119 -12q-1 53 10.5 102.5t27 86t43 77t49 65.5t54.5 60q6 7 27 30t28.5 32.5t24 30.5t24 35.5t18 36t15 42.5t6.5 45v88h129v-80q-5 -101 -41.5 -170t-105.5 -145q-39 -45 -52.5 -60.5t-42.5 -55t-39.5 -65.5t-21 -66t-10.5 -83q0 -111 59.5 -175.5t167.5 -64.5 q88 0 153 55.5t65 165.5v43h129v-36q0 -165 -101.5 -257t-259.5 -92q-166 0 -261 94.5t-95 260.5zM434 891v227h150v-227h-150z" />
<glyph unicode="&#xc0;" horiz-adv-x="1163" d="M55 0l441 1464h182l432 -1464h-154l-133 461h-489l-135 -461h-144zM293 1868h153l185 -299h-115zM365 582h423l-208 725h-2z" />
<glyph unicode="&#xc1;" horiz-adv-x="1163" d="M55 0l441 1464h182l432 -1464h-154l-133 461h-489l-135 -461h-144zM365 582h423l-208 725h-2zM545 1569l180 299h152l-220 -299h-112z" />
<glyph unicode="&#xc2;" horiz-adv-x="1163" d="M55 0l441 1464h182l432 -1464h-154l-133 461h-489l-135 -461h-144zM336 1565l186 305h109l180 -305h-123l-117 209l-116 -209h-119zM365 582h423l-208 725h-2z" />
<glyph unicode="&#xc3;" horiz-adv-x="1163" d="M55 0l441 1464h182l432 -1464h-154l-133 461h-489l-135 -461h-144zM260 1587q10 79 55.5 133t116.5 54q49 0 148.5 -38t148.5 -38q38 0 59.5 24t36.5 70l74 -16q-13 -79 -57.5 -131t-112.5 -52q-53 0 -154 37t-143 37q-23 0 -38.5 -6.5t-25.5 -21t-14.5 -27.5t-11.5 -37z M365 582h423l-208 725h-2z" />
<glyph unicode="&#xc4;" horiz-adv-x="1163" d="M55 0l441 1464h182l432 -1464h-154l-133 461h-489l-135 -461h-144zM365 582h423l-208 725h-2zM365 1624v213h129v-213h-129zM680 1624v213h127v-213h-127z" />
<glyph unicode="&#xc5;" horiz-adv-x="1163" d="M55 0l441 1464h182l432 -1464h-154l-133 461h-489l-135 -461h-144zM365 582h423l-208 725h-2zM412 1700q0 75 49.5 127.5t122.5 52.5q82 0 129 -47t47 -123t-49.5 -129t-124.5 -53q-82 0 -128 50t-46 122zM487 1700q0 -51 27 -79t70 -28q46 0 74 29t28 82t-27.5 83 t-76.5 30q-44 0 -69.5 -32t-25.5 -85z" />
<glyph unicode="&#xc6;" horiz-adv-x="1703" d="M45 0l698 1460h881v-129h-641v-510h510v-131h-510v-559h641v-131h-793v440l-421 2l-209 -442h-156zM463 559h368v768h-4z" />
<glyph unicode="&#xc7;" horiz-adv-x="1150" d="M121 406v645q0 196 132 315t345 119q195 0 315.5 -104t120.5 -267v-113h-137v82q0 123 -78 199t-227 76q-151 0 -234.5 -87t-83.5 -229v-618q0 -162 87 -241t237 -79q141 0 220 72t79 189v96h137v-109q0 -163 -108 -263.5t-289 -111.5l-25 -96q57 -2 100.5 -14.5 t74 -43.5t30.5 -77q0 -64 -59.5 -106.5t-153.5 -42.5q-86 0 -166 24v80q91 -25 166 -25q103 0 103 68q0 63 -117 72l-68 4l39 157q-200 9 -320 119t-120 310z" />
<glyph unicode="&#xc8;" horiz-adv-x="1054" d="M160 0v1460h792v-131h-641v-508h510v-129h-510v-561h641v-131h-792zM315 1868h154l184 -299h-114z" />
<glyph unicode="&#xc9;" horiz-adv-x="1054" d="M160 0v1460h792v-131h-641v-508h510v-129h-510v-561h641v-131h-792zM489 1569l181 299h151l-219 -299h-113z" />
<glyph unicode="&#xca;" horiz-adv-x="1054" d="M160 0v1460h792v-131h-641v-508h510v-129h-510v-561h641v-131h-792zM326 1565l186 305h109l180 -305h-123l-117 209l-117 -209h-118z" />
<glyph unicode="&#xcb;" horiz-adv-x="1054" d="M160 0v1460h792v-131h-641v-508h510v-129h-510v-561h641v-131h-792zM356 1620v213h129v-213h-129zM672 1620v213h127v-213h-127z" />
<glyph unicode="&#xcc;" horiz-adv-x="442" d="M-68 1868h154l184 -299h-114zM152 0v1460h151v-1460h-151z" />
<glyph unicode="&#xcd;" horiz-adv-x="442" d="M152 0v1460h151v-1460h-151zM180 1569l180 299h152l-219 -299h-113z" />
<glyph unicode="&#xce;" horiz-adv-x="442" d="M-10 1565l186 305h109l180 -305h-123l-117 209l-116 -209h-119zM152 0v1460h151v-1460h-151z" />
<glyph unicode="&#xcf;" horiz-adv-x="442" d="M12 1620v213h129v-213h-129zM152 0v1460h151v-1460h-151zM328 1620v213h127v-213h-127z" />
<glyph unicode="&#xd0;" horiz-adv-x="1228" d="M66 707v108h129v645h471q200 0 320 -102t120 -299v-635q0 -204 -120.5 -314t-319.5 -110h-471v707h-129zM346 129h299q105 0 176 42t101 106.5t30 146.5v614q0 130 -76.5 211.5t-226.5 81.5h-303v-516h338v-108h-338v-578z" />
<glyph unicode="&#xd1;" horiz-adv-x="1245" d="M160 0v1460h153l635 -1155h4v1155h135v-1460h-133l-655 1206h-4v-1206h-135zM324 1587q10 79 55.5 133t116.5 54q49 0 148.5 -38t148.5 -38q38 0 59.5 24t36.5 70l74 -16q-13 -79 -57.5 -131t-112.5 -52q-53 0 -154 37t-143 37q-23 0 -38.5 -6.5t-25.5 -21t-14.5 -27.5 t-11.5 -37z" />
<glyph unicode="&#xd2;" horiz-adv-x="1200" d="M121 416v608q0 217 132.5 340t346.5 123q103 0 189 -27t151.5 -79.5t102 -136.5t36.5 -193v-611q0 -148 -63 -254.5t-170 -158.5t-246 -52q-103 0 -189 27t-151.5 79.5t-102 138t-36.5 196.5zM274 426q0 -146 86.5 -230.5t241.5 -84.5q150 0 237 87t87 230v621 q0 143 -88.5 224t-243.5 81q-152 0 -236 -88.5t-84 -243.5v-596zM332 1868h153l185 -299h-115z" />
<glyph unicode="&#xd3;" horiz-adv-x="1200" d="M121 416v608q0 217 132.5 340t346.5 123q103 0 189 -27t151.5 -79.5t102 -136.5t36.5 -193v-611q0 -148 -63 -254.5t-170 -158.5t-246 -52q-103 0 -189 27t-151.5 79.5t-102 138t-36.5 196.5zM274 426q0 -146 86.5 -230.5t241.5 -84.5q150 0 237 87t87 230v621 q0 143 -88.5 224t-243.5 81q-152 0 -236 -88.5t-84 -243.5v-596zM526 1569l181 299h151l-219 -299h-113z" />
<glyph unicode="&#xd4;" horiz-adv-x="1200" d="M121 416v608q0 217 132.5 340t346.5 123q103 0 189 -27t151.5 -79.5t102 -136.5t36.5 -193v-611q0 -148 -63 -254.5t-170 -158.5t-246 -52q-103 0 -189 27t-151.5 79.5t-102 138t-36.5 196.5zM274 426q0 -146 86.5 -230.5t241.5 -84.5q150 0 237 87t87 230v621 q0 143 -88.5 224t-243.5 81q-152 0 -236 -88.5t-84 -243.5v-596zM358 1565l187 305h108l181 -305h-123l-117 209l-117 -209h-119z" />
<glyph unicode="&#xd5;" horiz-adv-x="1200" d="M121 416v608q0 217 132.5 340t346.5 123q103 0 189 -27t151.5 -79.5t102 -136.5t36.5 -193v-611q0 -148 -63 -254.5t-170 -158.5t-246 -52q-103 0 -189 27t-151.5 79.5t-102 138t-36.5 196.5zM268 1587q10 79 55.5 133t116.5 54q49 0 148.5 -38t148.5 -38q38 0 60 24 t37 70l73 -16q-13 -79 -57.5 -131t-112.5 -52q-53 0 -154 37t-143 37q-23 0 -38.5 -6.5t-25.5 -21t-14.5 -27.5t-11.5 -37zM274 426q0 -146 86.5 -230.5t241.5 -84.5q150 0 237 87t87 230v621q0 143 -88.5 224t-243.5 81q-152 0 -236 -88.5t-84 -243.5v-596z" />
<glyph unicode="&#xd6;" horiz-adv-x="1200" d="M121 416v608q0 217 132.5 340t346.5 123q103 0 189 -27t151.5 -79.5t102 -136.5t36.5 -193v-611q0 -148 -63 -254.5t-170 -158.5t-246 -52q-103 0 -189 27t-151.5 79.5t-102 138t-36.5 196.5zM274 426q0 -146 86.5 -230.5t241.5 -84.5q150 0 237 87t87 230v621 q0 143 -88.5 224t-243.5 81q-152 0 -236 -88.5t-84 -243.5v-596zM381 1620v213h129v-213h-129zM696 1620v213h127v-213h-127z" />
<glyph unicode="&#xd7;" horiz-adv-x="1105" d="M188 948l74 72l295 -293l289 291l72 -72l-291 -291q45 -48 150.5 -154t140.5 -143l-72 -69l-289 291q-52 -48 -170 -169t-125 -128l-72 73l293 297q-25 25 -89 89.5t-117 117.5t-89 88z" />
<glyph unicode="&#xd8;" horiz-adv-x="1196" d="M121 416v608q0 217 132.5 340t346.5 123q168 0 287 -70l63 133l86 -37l-73 -153q116 -113 116 -309v-611q0 -148 -63 -254.5t-170 -158.5t-246 -52q-153 0 -270 60l-70 -148l-84 39l76 160q-131 118 -131 330zM274 426q0 -111 50 -188l499 1046q-89 70 -229 70 q-152 0 -236 -88.5t-84 -243.5v-596zM393 168q82 -57 209 -57q150 0 237 87t87 230v621q0 90 -37 157z" />
<glyph unicode="&#xd9;" horiz-adv-x="1230" d="M150 408v1052h151v-1032q0 -88 27 -153t74 -101t102 -53t119 -17q147 0 232 86t81 230v1040h145v-1044q1 -205 -130 -323t-341 -118q-94 0 -174.5 24.5t-145.5 74.5t-102.5 135.5t-37.5 198.5zM365 1864h153l184 -299h-114z" />
<glyph unicode="&#xda;" horiz-adv-x="1230" d="M150 408v1052h151v-1032q0 -88 27 -153t74 -101t102 -53t119 -17q147 0 232 86t81 230v1040h145v-1044q1 -205 -130 -323t-341 -118q-94 0 -174.5 24.5t-145.5 74.5t-102.5 135.5t-37.5 198.5zM567 1567l181 299h151l-219 -299h-113z" />
<glyph unicode="&#xdb;" horiz-adv-x="1230" d="M150 408v1052h151v-1032q0 -88 27 -153t74 -101t102 -53t119 -17q147 0 232 86t81 230v1040h145v-1044q1 -205 -130 -323t-341 -118q-94 0 -174.5 24.5t-145.5 74.5t-102.5 135.5t-37.5 198.5zM393 1563l187 305h108l180 -305h-123l-116 209l-117 -209h-119z" />
<glyph unicode="&#xdc;" horiz-adv-x="1230" d="M150 408v1052h151v-1032q0 -88 27 -153t74 -101t102 -53t119 -17q147 0 232 86t81 230v1040h145v-1044q1 -205 -130 -323t-341 -118q-94 0 -174.5 24.5t-145.5 74.5t-102.5 135.5t-37.5 198.5zM420 1620v213h129v-213h-129zM735 1620v213h127v-213h-127z" />
<glyph unicode="&#xdd;" horiz-adv-x="1048" d="M57 1460h158l320 -696l311 696h147l-393 -844v-616h-154v618zM483 1563l181 299h151l-219 -299h-113z" />
<glyph unicode="&#xde;" horiz-adv-x="1118" d="M160 0v1460h151v-282h289q103 0 183 -32.5t130 -90t75.5 -133t25.5 -164.5q0 -200 -116.5 -319.5t-330.5 -119.5h-256v-319h-151zM311 436h224q159 0 243 81t84 237q0 133 -75.5 219t-208.5 86h-267v-623z" />
<glyph unicode="&#xdf;" horiz-adv-x="1210" d="M74 924v116h155v60q0 164 108.5 273.5t295.5 109.5q184 0 291.5 -103t107.5 -252q0 -114 -60 -210.5t-177 -157.5v-2q91 -30 160.5 -79.5t109.5 -107t60 -115.5t20 -114q0 -171 -95.5 -269t-248.5 -98q-204 0 -334 142l78 92q63 -62 122.5 -92.5t137.5 -30.5 q103 0 154 65.5t51 170.5q0 76 -33 141t-89 109.5t-124.5 73.5t-145.5 40v117l54 2q105 49 161 130t56 177q0 119 -70.5 187.5t-195.5 68.5q-122 0 -186 -71.5t-64 -186.5v-1110h-144v924h-155z" />
<glyph unicode="&#xe0;" horiz-adv-x="960" d="M94 274q0 87 35.5 154t93 104t122 55.5t132.5 18.5h199v178q0 89 -54.5 134t-150.5 45q-90 0 -152.5 -43t-62.5 -123v-60h-129v64q0 127 101.5 196.5t258.5 69.5q95 0 168.5 -28t119.5 -91.5t46 -156.5v-527q0 -9 10 -264h-133l-8 166h-4q-24 -53 -62 -92t-81.5 -59 t-83 -29t-78.5 -9q-122 0 -204.5 77.5t-82.5 219.5zM213 1479h154l184 -299h-115zM242 295q0 -100 54 -153.5t134 -53.5q102 0 174 73.5t72 184.5v162h-176q-50 0 -92 -9.5t-81.5 -31.5t-62 -66t-22.5 -106z" />
<glyph unicode="&#xe1;" horiz-adv-x="960" d="M94 274q0 87 35.5 154t93 104t122 55.5t132.5 18.5h199v178q0 89 -54.5 134t-150.5 45q-90 0 -152.5 -43t-62.5 -123v-60h-129v64q0 127 101.5 196.5t258.5 69.5q95 0 168.5 -28t119.5 -91.5t46 -156.5v-527q0 -9 10 -264h-133l-8 166h-4q-24 -53 -62 -92t-81.5 -59 t-83 -29t-78.5 -9q-122 0 -204.5 77.5t-82.5 219.5zM242 295q0 -100 54 -153.5t134 -53.5q102 0 174 73.5t72 184.5v162h-176q-50 0 -92 -9.5t-81.5 -31.5t-62 -66t-22.5 -106zM395 1180l180 299h152l-219 -299h-113z" />
<glyph unicode="&#xe2;" horiz-adv-x="960" d="M94 274q0 87 35.5 154t93 104t122 55.5t132.5 18.5h199v178q0 89 -54.5 134t-150.5 45q-90 0 -152.5 -43t-62.5 -123v-60h-129v64q0 127 101.5 196.5t258.5 69.5q95 0 168.5 -28t119.5 -91.5t46 -156.5v-527q0 -9 10 -264h-133l-8 166h-4q-24 -53 -62 -92t-81.5 -59 t-83 -29t-78.5 -9q-122 0 -204.5 77.5t-82.5 219.5zM225 1176l187 305h108l180 -305h-122l-117 208l-117 -208h-119zM242 295q0 -100 54 -153.5t134 -53.5q102 0 174 73.5t72 184.5v162h-176q-50 0 -92 -9.5t-81.5 -31.5t-62 -66t-22.5 -106z" />
<glyph unicode="&#xe3;" horiz-adv-x="960" d="M94 274q0 87 35.5 154t93 104t122 55.5t132.5 18.5h199v178q0 89 -54.5 134t-150.5 45q-90 0 -152.5 -43t-62.5 -123v-60h-129v64q0 127 101.5 196.5t258.5 69.5q95 0 168.5 -28t119.5 -91.5t46 -156.5v-527q0 -9 10 -264h-133l-8 166h-4q-24 -53 -62 -92t-81.5 -59 t-83 -29t-78.5 -9q-122 0 -204.5 77.5t-82.5 219.5zM154 1198q10 79 55.5 132.5t116.5 53.5q49 0 148.5 -37.5t148.5 -37.5q38 0 59.5 24t36.5 70l74 -17q-13 -79 -57 -130.5t-113 -51.5q-53 0 -154 37t-143 37q-23 0 -38.5 -6.5t-25.5 -21t-14.5 -27.5t-11.5 -37zM242 295 q0 -100 54 -153.5t134 -53.5q102 0 174 73.5t72 184.5v162h-176q-50 0 -92 -9.5t-81.5 -31.5t-62 -66t-22.5 -106z" />
<glyph unicode="&#xe4;" horiz-adv-x="960" d="M94 274q0 87 35.5 154t93 104t122 55.5t132.5 18.5h199v178q0 89 -54.5 134t-150.5 45q-90 0 -152.5 -43t-62.5 -123v-60h-129v64q0 127 101.5 196.5t258.5 69.5q95 0 168.5 -28t119.5 -91.5t46 -156.5v-527q0 -9 10 -264h-133l-8 166h-4q-24 -53 -62 -92t-81.5 -59 t-83 -29t-78.5 -9q-122 0 -204.5 77.5t-82.5 219.5zM242 295q0 -100 54 -153.5t134 -53.5q102 0 174 73.5t72 184.5v162h-176q-50 0 -92 -9.5t-81.5 -31.5t-62 -66t-22.5 -106zM254 1231v213h129v-213h-129zM569 1231v213h127v-213h-127z" />
<glyph unicode="&#xe5;" horiz-adv-x="960" d="M94 274q0 87 35.5 154t93 104t122 55.5t132.5 18.5h199v178q0 89 -54.5 134t-150.5 45q-90 0 -152.5 -43t-62.5 -123v-60h-129v64q0 127 101.5 196.5t258.5 69.5q95 0 168.5 -28t119.5 -91.5t46 -156.5v-527q0 -9 10 -264h-133l-8 166h-4q-24 -53 -62 -92t-81.5 -59 t-83 -29t-78.5 -9q-122 0 -204.5 77.5t-82.5 219.5zM242 295q0 -100 54 -153.5t134 -53.5q102 0 174 73.5t72 184.5v162h-176q-50 0 -92 -9.5t-81.5 -31.5t-62 -66t-22.5 -106zM301 1327q0 75 49.5 127.5t122.5 52.5q82 0 129 -47t47 -123t-49.5 -129t-124.5 -53 q-82 0 -128 50t-46 122zM377 1327q0 -51 26.5 -78.5t69.5 -27.5q46 0 74 28.5t28 81.5t-27.5 83t-76.5 30q-44 0 -69 -32t-25 -85z" />
<glyph unicode="&#xe6;" horiz-adv-x="1503" d="M94 274q0 87 35.5 154t93 104t122 55.5t132.5 18.5h199v178q0 89 -56.5 134t-152.5 45q-89 0 -150 -43t-61 -123v-60h-129v64q0 128 99.5 197t256.5 69q103 0 179 -35t102 -110q92 145 295 145q162 0 255 -96.5t93 -268.5v-202h-588v-152q0 -252 268 -252q121 0 252 76 l52 -96q-121 -101 -326 -101q-129 0 -217.5 51.5t-124.5 157.5q-27 -62 -70.5 -106t-93 -65t-90.5 -29.5t-80 -8.5q-125 0 -210 78.5t-85 220.5zM242 295q0 -101 54 -154t138 -53q100 0 171 73.5t71 184.5v162h-164q-270 0 -270 -213zM819 606h451v105q0 49 -11.5 90.5 t-36.5 77.5t-69.5 56.5t-105.5 20.5q-110 0 -169 -71.5t-59 -169.5v-109z" />
<glyph unicode="&#xe7;" horiz-adv-x="919" d="M113 344v350q0 177 100 275t262 98q164 0 255 -81t91 -212v-55h-133v51q0 31 -10.5 60.5t-33 58.5t-66 47t-101.5 18q-114 0 -167.5 -70t-53.5 -182v-362q0 -250 229 -250q60 0 102.5 18t63 48.5t29 60.5t8.5 64v49h133v-60q0 -121 -75.5 -200.5t-219.5 -92.5l-24 -96 q57 -2 100.5 -14.5t74 -43.5t30.5 -77q0 -64 -59.5 -106.5t-153.5 -42.5q-86 0 -166 24v80q91 -25 166 -25q102 0 102 68q0 63 -117 72l-67 4l39 157q-159 6 -248.5 99.5t-89.5 267.5z" />
<glyph unicode="&#xe8;" horiz-adv-x="946" d="M113 352v318q0 187 106 292t273 105q165 0 258.5 -98.5t93.5 -270.5v-204h-586v-144q0 -254 262 -254q123 0 254 76l53 -96q-128 -101 -327 -101q-179 0 -283 93.5t-104 283.5zM229 1479h154l184 -299h-114zM258 598h449v113q0 49 -12 90.5t-37 77.5t-70.5 56.5 t-106.5 20.5q-57 0 -101 -21t-70 -56.5t-39 -78t-13 -89.5v-113z" />
<glyph unicode="&#xe9;" horiz-adv-x="946" d="M113 352v318q0 187 106 292t273 105q165 0 258.5 -98.5t93.5 -270.5v-204h-586v-144q0 -254 262 -254q123 0 254 76l53 -96q-128 -101 -327 -101q-179 0 -283 93.5t-104 283.5zM258 598h449v113q0 49 -12 90.5t-37 77.5t-70.5 56.5t-106.5 20.5q-57 0 -101 -21t-70 -56.5 t-39 -78t-13 -89.5v-113zM430 1180l180 299h152l-219 -299h-113z" />
<glyph unicode="&#xea;" horiz-adv-x="946" d="M113 352v318q0 187 106 292t273 105q165 0 258.5 -98.5t93.5 -270.5v-204h-586v-144q0 -254 262 -254q123 0 254 76l53 -96q-128 -101 -327 -101q-179 0 -283 93.5t-104 283.5zM246 1176l186 305h109l180 -305h-123l-117 208l-116 -208h-119zM258 598h449v113 q0 49 -12 90.5t-37 77.5t-70.5 56.5t-106.5 20.5q-57 0 -101 -21t-70 -56.5t-39 -78t-13 -89.5v-113z" />
<glyph unicode="&#xeb;" horiz-adv-x="946" d="M113 352v318q0 187 106 292t273 105q165 0 258.5 -98.5t93.5 -270.5v-204h-586v-144q0 -254 262 -254q123 0 254 76l53 -96q-128 -101 -327 -101q-179 0 -283 93.5t-104 283.5zM258 598h449v113q0 49 -12 90.5t-37 77.5t-70.5 56.5t-106.5 20.5q-57 0 -101 -21t-70 -56.5 t-39 -78t-13 -89.5v-113zM260 1231v213h129v-213h-129zM575 1231v213h127v-213h-127z" />
<glyph unicode="&#xec;" horiz-adv-x="446" d="M-66 1479h154l184 -299h-114zM152 0v1042h143v-1042h-143z" />
<glyph unicode="&#xed;" horiz-adv-x="446" d="M152 0v1042h143v-1042h-143zM168 1180l180 299h152l-219 -299h-113z" />
<glyph unicode="&#xee;" horiz-adv-x="446" d="M-14 1176l186 305h109l180 -305h-123l-117 208l-117 -208h-118zM152 0v1042h143v-1042h-143z" />
<glyph unicode="&#xef;" horiz-adv-x="446" d="M12 1231v213h129v-213h-129zM152 0v1042h143v-1042h-143zM328 1231v213h127v-213h-127z" />
<glyph unicode="&#xf0;" horiz-adv-x="970" d="M113 334v354q0 166 98 263.5t248 97.5q60 0 114 -23l-131 209l-221 -64l-39 84l201 60l-88 139l147 41q3 -6 41 -66.5t45 -70.5l215 63l37 -86l-196 -59q141 -215 211 -334q29 -44 46 -110.5t17 -135.5v-348q0 -185 -99 -279t-274 -94q-173 0 -272.5 90t-99.5 269z M256 332q0 -110 56.5 -176t174.5 -66q124 0 175 68t51 186v348q0 113 -51.5 180.5t-165.5 67.5q-119 0 -179.5 -69.5t-60.5 -186.5v-352z" />
<glyph unicode="&#xf1;" d="M152 0v1042h135v-176h2q49 101 135 151t190 50q116 0 189.5 -76.5t73.5 -189.5v-801h-144v762q0 101 -46 145.5t-134 44.5q-97 0 -177.5 -83t-80.5 -197v-672h-143zM213 1198q10 79 55.5 132.5t116.5 53.5q49 0 148.5 -37.5t148.5 -37.5q38 0 59.5 24t36.5 70l74 -17 q-13 -79 -57.5 -130.5t-112.5 -51.5q-53 0 -154 37t-143 37q-23 0 -38.5 -6.5t-25.5 -21t-14.5 -27.5t-11.5 -37z" />
<glyph unicode="&#xf2;" horiz-adv-x="970" d="M113 350v338q0 178 103 278.5t267 100.5q171 0 273 -96.5t102 -276.5v-338q0 -185 -102 -283t-269 -98q-172 0 -273 96.5t-101 278.5zM207 1479h153l185 -299h-115zM256 352q0 -260 233 -260q226 0 226 262v348q0 112 -57.5 182t-174.5 70t-172 -72.5t-55 -189.5v-340z " />
<glyph unicode="&#xf3;" horiz-adv-x="970" d="M113 350v338q0 178 103 278.5t267 100.5q171 0 273 -96.5t102 -276.5v-338q0 -185 -102 -283t-269 -98q-172 0 -273 96.5t-101 278.5zM256 352q0 -260 233 -260q226 0 226 262v348q0 112 -57.5 182t-174.5 70t-172 -72.5t-55 -189.5v-340zM412 1180l180 299h151 l-219 -299h-112z" />
<glyph unicode="&#xf4;" horiz-adv-x="970" d="M113 350v338q0 178 103 278.5t267 100.5q171 0 273 -96.5t102 -276.5v-338q0 -185 -102 -283t-269 -98q-172 0 -273 96.5t-101 278.5zM248 1176l186 305h109l180 -305h-123l-117 208l-116 -208h-119zM256 352q0 -260 233 -260q226 0 226 262v348q0 112 -57.5 182 t-174.5 70t-172 -72.5t-55 -189.5v-340z" />
<glyph unicode="&#xf5;" horiz-adv-x="970" d="M113 350v338q0 178 103 278.5t267 100.5q171 0 273 -96.5t102 -276.5v-338q0 -185 -102 -283t-269 -98q-172 0 -273 96.5t-101 278.5zM160 1198q10 79 55.5 132.5t116.5 53.5q49 0 148.5 -37.5t148.5 -37.5q38 0 59.5 24t36.5 70l74 -17q-13 -79 -57 -130.5t-113 -51.5 q-53 0 -154 37t-143 37q-23 0 -38.5 -6.5t-25.5 -21t-14.5 -27.5t-11.5 -37zM256 352q0 -260 233 -260q226 0 226 262v348q0 112 -57.5 182t-174.5 70t-172 -72.5t-55 -189.5v-340z" />
<glyph unicode="&#xf6;" horiz-adv-x="970" d="M113 350v338q0 178 103 278.5t267 100.5q171 0 273 -96.5t102 -276.5v-338q0 -185 -102 -283t-269 -98q-172 0 -273 96.5t-101 278.5zM256 352q0 -260 233 -260q226 0 226 262v348q0 112 -57.5 182t-174.5 70t-172 -72.5t-55 -189.5v-340zM266 1231v213h129v-213h-129z M582 1231v213h127v-213h-127z" />
<glyph unicode="&#xf7;" horiz-adv-x="1105" d="M162 600v105h780v-105h-780zM487 229v201h140v-201h-140zM487 850v201h140v-201h-140z" />
<glyph unicode="&#xf8;" horiz-adv-x="970" d="M113 350v338q0 178 103 278.5t267 100.5q121 0 207 -47l55 117l80 -39l-63 -133q96 -99 96 -271v-338q0 -185 -102 -283t-269 -98q-103 0 -184 35l-59 -123l-78 37l63 133q-116 96 -116 293zM256 352q0 -104 35 -164l344 717q-58 49 -152 49q-117 0 -172 -72.5 t-55 -189.5v-340zM356 123q54 -31 133 -31q226 0 226 262v348q0 60 -23 121z" />
<glyph unicode="&#xf9;" d="M145 242v800h144v-757q0 -102 44 -147.5t134 -45.5q103 0 181.5 84t78.5 201v665h143v-1042h-129l-6 178h-4q-39 -94 -126.5 -148.5t-190.5 -54.5q-119 0 -194 74.5t-75 192.5zM238 1479h153l184 -299h-114z" />
<glyph unicode="&#xfa;" d="M145 242v800h144v-757q0 -102 44 -147.5t134 -45.5q103 0 181.5 84t78.5 201v665h143v-1042h-129l-6 178h-4q-39 -94 -126.5 -148.5t-190.5 -54.5q-119 0 -194 74.5t-75 192.5zM453 1180l180 299h151l-219 -299h-112z" />
<glyph unicode="&#xfb;" d="M145 242v800h144v-757q0 -102 44 -147.5t134 -45.5q103 0 181.5 84t78.5 201v665h143v-1042h-129l-6 178h-4q-39 -94 -126.5 -148.5t-190.5 -54.5q-119 0 -194 74.5t-75 192.5zM285 1176l186 305h109l180 -305h-123l-117 208l-117 -208h-118z" />
<glyph unicode="&#xfc;" d="M145 242v800h144v-757q0 -102 44 -147.5t134 -45.5q103 0 181.5 84t78.5 201v665h143v-1042h-129l-6 178h-4q-39 -94 -126.5 -148.5t-190.5 -54.5q-119 0 -194 74.5t-75 192.5zM297 1231v213h129v-213h-129zM612 1231v213h127v-213h-127z" />
<glyph unicode="&#xfd;" horiz-adv-x="872" d="M47 1042h152l250 -823h2l247 823h131l-364 -1163q-77 -268 -285 -268q-74 0 -129 16l10 121q65 -14 109 -14q57 0 92.5 31.5t63.5 107.5l47 160zM412 1180l180 299h151l-219 -299h-112z" />
<glyph unicode="&#xfe;" horiz-adv-x="995" d="M152 -369v1829h143v-583h6q40 94 123 143t170 49q139 0 215 -85.5t76 -215.5v-461q0 -152 -91 -242t-221 -90q-55 0 -109 20t-99.5 62t-65.5 99h-4v-525h-143zM295 381q0 -126 75.5 -211.5t172.5 -85.5q90 0 144 55.5t54 163.5v447q0 89 -51 145.5t-153 56.5 q-97 0 -169.5 -86.5t-72.5 -220.5v-264z" />
<glyph unicode="&#xff;" horiz-adv-x="872" d="M47 1042h152l250 -823h2l247 823h131l-364 -1163q-77 -268 -285 -268q-74 0 -129 16l10 121q65 -14 109 -14q57 0 92.5 31.5t63.5 107.5l47 160zM248 1231v213h129v-213h-129zM563 1231v213h127v-213h-127z" />
<glyph unicode="&#x100;" horiz-adv-x="1163" d="M55 0l441 1464h182l432 -1464h-154l-133 461h-489l-135 -461h-144zM303 1626v109h553v-109h-553zM365 582h423l-208 725h-2z" />
<glyph unicode="&#x101;" horiz-adv-x="960" d="M94 274q0 87 35.5 154t93 104t122 55.5t132.5 18.5h199v178q0 89 -54.5 134t-150.5 45q-90 0 -152.5 -43t-62.5 -123v-60h-129v64q0 127 101.5 196.5t258.5 69.5q95 0 168.5 -28t119.5 -91.5t46 -156.5v-527q0 -9 10 -264h-133l-8 166h-4q-24 -53 -62 -92t-81.5 -59 t-83 -29t-78.5 -9q-122 0 -204.5 77.5t-82.5 219.5zM203 1235v108h553v-108h-553zM242 295q0 -100 54 -153.5t134 -53.5q102 0 174 73.5t72 184.5v162h-176q-50 0 -92 -9.5t-81.5 -31.5t-62 -66t-22.5 -106z" />
<glyph unicode="&#x102;" horiz-adv-x="1163" d="M55 0l441 1464h182l432 -1464h-154l-133 461h-489l-135 -461h-144zM287 1845h104q24 -172 199 -172q77 0 124 47t56 125h100q-6 -128 -90 -198t-198 -70q-130 0 -210.5 72t-84.5 196zM365 582h423l-208 725h-2z" />
<glyph unicode="&#x103;" horiz-adv-x="960" d="M94 274q0 87 35.5 154t93 104t122 55.5t132.5 18.5h199v178q0 89 -54.5 134t-150.5 45q-90 0 -152.5 -43t-62.5 -123v-60h-129v64q0 127 101.5 196.5t258.5 69.5q95 0 168.5 -28t119.5 -91.5t46 -156.5v-527q0 -9 10 -264h-133l-8 166h-4q-24 -53 -62 -92t-81.5 -59 t-83 -29t-78.5 -9q-122 0 -204.5 77.5t-82.5 219.5zM186 1454h105q24 -172 198 -172q77 0 124.5 47t56.5 125h100q-6 -128 -90.5 -198t-198.5 -70q-130 0 -210.5 72t-84.5 196zM242 295q0 -100 54 -153.5t134 -53.5q102 0 174 73.5t72 184.5v162h-176q-50 0 -92 -9.5 t-81.5 -31.5t-62 -66t-22.5 -106z" />
<glyph unicode="&#x104;" horiz-adv-x="1163" d="M55 0l441 1464h182l432 -1464h-41q-58 -30 -98.5 -82.5t-40.5 -120.5q0 -106 102 -106q25 0 55.5 9t47.5 21l39 -71q-59 -45 -160 -45q-78 0 -131.5 43.5t-53.5 126.5q0 67 36 127t91 98l-133 461h-489l-135 -461h-144zM365 582h423l-208 725h-2z" />
<glyph unicode="&#x105;" horiz-adv-x="960" d="M94 274q0 87 35.5 154t93 104t122 55.5t132.5 18.5h199v178q0 89 -54.5 134t-150.5 45q-90 0 -152.5 -43t-62.5 -123v-60h-129v64q0 127 101.5 196.5t258.5 69.5q95 0 168.5 -28t119.5 -91.5t46 -156.5v-527q0 -9 10 -264h-32q-58 -30 -99 -82.5t-41 -120.5 q0 -49 25.5 -77.5t77.5 -28.5q24 0 54.5 9t47.5 21l39 -71q-59 -45 -160 -45q-78 0 -131 43.5t-53 126.5q0 70 39.5 132t97.5 101l-6 158h-4q-24 -53 -62 -92t-81.5 -59t-83 -29t-78.5 -9q-122 0 -204.5 77.5t-82.5 219.5zM242 295q0 -100 54 -153.5t134 -53.5 q102 0 174 73.5t72 184.5v162h-176q-50 0 -92 -9.5t-81.5 -31.5t-62 -66t-22.5 -106z" />
<glyph unicode="&#x106;" horiz-adv-x="1150" d="M121 406v645q0 196 132 315t345 119q195 0 315.5 -104t120.5 -267v-113h-137v82q0 123 -78 199t-227 76q-151 0 -234.5 -87t-83.5 -229v-618q0 -162 87 -241t237 -79q141 0 220 72t79 189v96h137v-109q0 -171 -119.5 -274t-316.5 -103q-214 0 -345.5 111t-131.5 320z M532 1571l181 299h151l-219 -299h-113z" />
<glyph unicode="&#x107;" horiz-adv-x="919" d="M113 344v350q0 177 100 275t262 98q164 0 255 -81t91 -212v-55h-133v51q0 31 -10.5 60.5t-33 58.5t-66 47t-101.5 18q-114 0 -167.5 -70t-53.5 -182v-362q0 -250 229 -250q60 0 102.5 18t63 48.5t29 60.5t8.5 64v49h133v-60q0 -131 -89 -213t-255 -82q-171 0 -267.5 94.5 t-96.5 274.5zM401 1180l181 299h151l-219 -299h-113z" />
<glyph unicode="&#x108;" horiz-adv-x="1150" d="M121 406v645q0 196 132 315t345 119q195 0 315.5 -104t120.5 -267v-113h-137v82q0 123 -78 199t-227 76q-151 0 -234.5 -87t-83.5 -229v-618q0 -162 87 -241t237 -79q141 0 220 72t79 189v96h137v-109q0 -171 -119.5 -274t-316.5 -103q-214 0 -345.5 111t-131.5 320z M344 1567l186 305h109l180 -305h-123l-116 209l-117 -209h-119z" />
<glyph unicode="&#x109;" horiz-adv-x="919" d="M113 344v350q0 177 100 275t262 98q164 0 255 -81t91 -212v-55h-133v51q0 31 -10.5 60.5t-33 58.5t-66 47t-101.5 18q-114 0 -167.5 -70t-53.5 -182v-362q0 -250 229 -250q60 0 102.5 18t63 48.5t29 60.5t8.5 64v49h133v-60q0 -131 -89 -213t-255 -82q-171 0 -267.5 94.5 t-96.5 274.5zM236 1176l186 305h108l181 -305h-123l-117 208l-117 -208h-118z" />
<glyph unicode="&#x10a;" horiz-adv-x="1150" d="M121 406v645q0 196 132 315t345 119q195 0 315.5 -104t120.5 -267v-113h-137v82q0 123 -78 199t-227 76q-151 0 -234.5 -87t-83.5 -229v-618q0 -162 87 -241t237 -79q141 0 220 72t79 189v96h137v-109q0 -171 -119.5 -274t-316.5 -103q-214 0 -345.5 111t-131.5 320z M518 1622v219h133v-219h-133z" />
<glyph unicode="&#x10b;" horiz-adv-x="919" d="M113 344v350q0 177 100 275t262 98q164 0 255 -81t91 -212v-55h-133v51q0 31 -10.5 60.5t-33 58.5t-66 47t-101.5 18q-114 0 -167.5 -70t-53.5 -182v-362q0 -250 229 -250q60 0 102.5 18t63 48.5t29 60.5t8.5 64v49h133v-60q0 -131 -89 -213t-255 -82q-171 0 -267.5 94.5 t-96.5 274.5zM412 1231v219h133v-219h-133z" />
<glyph unicode="&#x10c;" horiz-adv-x="1150" d="M121 406v645q0 196 132 315t345 119q195 0 315.5 -104t120.5 -267v-113h-137v82q0 123 -78 199t-227 76q-151 0 -234.5 -87t-83.5 -229v-618q0 -162 87 -241t237 -79q141 0 220 72t79 189v96h137v-109q0 -171 -119.5 -274t-316.5 -103q-214 0 -345.5 111t-131.5 320z M342 1874h123l117 -209l116 209h123l-190 -303h-107z" />
<glyph unicode="&#x10d;" horiz-adv-x="919" d="M113 344v350q0 177 100 275t262 98q164 0 255 -81t91 -212v-55h-133v51q0 31 -10.5 60.5t-33 58.5t-66 47t-101.5 18q-114 0 -167.5 -70t-53.5 -182v-362q0 -250 229 -250q60 0 102.5 18t63 48.5t29 60.5t8.5 64v49h133v-60q0 -131 -89 -213t-255 -82q-171 0 -267.5 94.5 t-96.5 274.5zM246 1483h123l116 -209l117 209h123l-190 -303h-107z" />
<glyph unicode="&#x10e;" horiz-adv-x="1193" d="M160 0v1460h471q200 0 320 -102t120 -299v-635q0 -204 -120.5 -314t-319.5 -110h-471zM311 129h299q155 0 231.5 84t76.5 211v614q0 130 -77 211.5t-227 81.5h-303v-1202zM344 1874h123l117 -209l116 209h123l-190 -303h-107z" />
<glyph unicode="&#x10f;" horiz-adv-x="995" d="M113 279v460q0 152 91.5 240t221.5 88q87 0 162.5 -45.5t109.5 -128.5h2v567h146v-1460h-131l-4 186h-6q-49 -108 -131 -159.5t-173 -51.5q-139 0 -213.5 86t-74.5 218zM256 297q0 -97 48.5 -151t146.5 -54q101 0 176 88t75 226v260q0 121 -77 209t-172 88 q-87 0 -142 -54.5t-55 -171.5v-440zM926 1128l14 332h125l-37 -332h-102z" />
<glyph unicode="&#x110;" horiz-adv-x="1228" d="M66 707v108h129v645h471q200 0 320 -102t120 -299v-635q0 -204 -120.5 -314t-319.5 -110h-471v707h-129zM346 129h299q105 0 176 42t101 106.5t30 146.5v614q0 130 -76.5 211.5t-226.5 81.5h-303v-516h338v-108h-338v-578z" />
<glyph unicode="&#x111;" horiz-adv-x="995" d="M113 279v460q0 152 91.5 240t221.5 88q87 0 162.5 -45.5t109.5 -128.5h2v305h-280v88h280v174h146v-174h110v-88h-110v-1198h-131l-4 186h-6q-49 -108 -131 -159.5t-173 -51.5q-139 0 -213.5 86t-74.5 218zM256 297q0 -97 48.5 -151t146.5 -54q101 0 176 88t75 226v260 q0 121 -77 209t-172 88q-87 0 -142 -54.5t-55 -171.5v-440z" />
<glyph unicode="&#x112;" horiz-adv-x="1054" d="M160 0v1460h792v-131h-641v-508h510v-129h-510v-561h641v-131h-792zM274 1626v109h553v-109h-553z" />
<glyph unicode="&#x113;" horiz-adv-x="946" d="M113 352v318q0 187 106 292t273 105q165 0 258.5 -98.5t93.5 -270.5v-204h-586v-144q0 -254 262 -254q123 0 254 76l53 -96q-128 -101 -327 -101q-179 0 -283 93.5t-104 283.5zM195 1235v108h553v-108h-553zM258 598h449v113q0 49 -12 90.5t-37 77.5t-70.5 56.5 t-106.5 20.5q-57 0 -101 -21t-70 -56.5t-39 -78t-13 -89.5v-113z" />
<glyph unicode="&#x114;" horiz-adv-x="1054" d="M160 0v1460h792v-131h-641v-508h510v-129h-510v-561h641v-131h-792zM276 1845h105q24 -172 199 -172q77 0 124 47t56 125h100q-6 -128 -90.5 -198t-198.5 -70q-130 0 -210.5 72t-84.5 196z" />
<glyph unicode="&#x115;" horiz-adv-x="946" d="M113 352v318q0 187 106 292t273 105q165 0 258.5 -98.5t93.5 -270.5v-204h-586v-144q0 -254 262 -254q123 0 254 76l53 -96q-128 -101 -327 -101q-179 0 -283 93.5t-104 283.5zM178 1454h105q24 -172 198 -172q77 0 124.5 47t56.5 125h100q-6 -128 -90.5 -198t-198.5 -70 q-130 0 -210.5 72t-84.5 196zM258 598h449v113q0 49 -12 90.5t-37 77.5t-70.5 56.5t-106.5 20.5q-57 0 -101 -21t-70 -56.5t-39 -78t-13 -89.5v-113z" />
<glyph unicode="&#x116;" horiz-adv-x="1054" d="M160 0v1460h792v-131h-641v-508h510v-129h-510v-561h641v-131h-792zM512 1622v219h133v-219h-133z" />
<glyph unicode="&#x117;" horiz-adv-x="946" d="M113 352v318q0 187 106 292t273 105q165 0 258.5 -98.5t93.5 -270.5v-204h-586v-144q0 -254 262 -254q123 0 254 76l53 -96q-128 -101 -327 -101q-179 0 -283 93.5t-104 283.5zM258 598h449v113q0 49 -12 90.5t-37 77.5t-70.5 56.5t-106.5 20.5q-57 0 -101 -21t-70 -56.5 t-39 -78t-13 -89.5v-113zM426 1231v219h133v-219h-133z" />
<glyph unicode="&#x118;" horiz-adv-x="1054" d="M160 0v1460h792v-131h-641v-508h510v-129h-510v-561h641v-131h-49q-58 -30 -98.5 -82.5t-40.5 -120.5q0 -106 102 -106q25 0 55.5 9t47.5 21l39 -71q-59 -45 -160 -45q-78 0 -131 43.5t-53 126.5q0 67 35 126t89 99h-628z" />
<glyph unicode="&#x119;" horiz-adv-x="946" d="M113 352v318q0 187 106 292t273 105q165 0 258.5 -98.5t93.5 -270.5v-204h-586v-144q0 -254 262 -254q123 0 254 76l53 -96q-37 -30 -63 -41q-56 -35 -96.5 -100t-40.5 -138q0 -49 26.5 -78.5t77.5 -29.5q53 0 103 32l36 -71q-59 -45 -159 -45q-77 0 -130 43.5t-53 126.5 q0 114 93 211q-71 -11 -121 -11q-179 0 -283 93.5t-104 283.5zM258 598h449v113q0 49 -12 90.5t-37 77.5t-70.5 56.5t-106.5 20.5q-57 0 -101 -21t-70 -56.5t-39 -78t-13 -89.5v-113z" />
<glyph unicode="&#x11a;" horiz-adv-x="1054" d="M160 0v1460h792v-131h-641v-508h510v-129h-510v-561h641v-131h-792zM330 1874h123l116 -209l117 209h123l-191 -303h-106z" />
<glyph unicode="&#x11b;" horiz-adv-x="946" d="M113 352v318q0 187 106 292t273 105q165 0 258.5 -98.5t93.5 -270.5v-204h-586v-144q0 -254 262 -254q123 0 254 76l53 -96q-128 -101 -327 -101q-179 0 -283 93.5t-104 283.5zM246 1483h123l116 -209l117 209h123l-190 -303h-107zM258 598h449v113q0 49 -12 90.5 t-37 77.5t-70.5 56.5t-106.5 20.5q-57 0 -101 -21t-70 -56.5t-39 -78t-13 -89.5v-113z" />
<glyph unicode="&#x11c;" horiz-adv-x="1183" d="M121 406v636q0 197 133.5 321t343.5 124q198 0 322 -104.5t124 -266.5v-104h-139v84q0 116 -83.5 190t-225.5 74q-152 0 -238 -91.5t-86 -232.5v-620q0 -148 86.5 -230t241.5 -82q160 0 233.5 76.5t73.5 200.5v254h-305v121h449v-394q0 -172 -124 -279.5t-329 -107.5 q-213 0 -345 111t-132 320zM352 1567l187 305h108l180 -305h-122l-117 209l-117 -209h-119z" />
<glyph unicode="&#x11d;" horiz-adv-x="993" d="M113 317v437q0 99 47 172.5t117.5 108t152.5 34.5q86 0 169 -46.5t116 -137.5h2l6 159h123v-1044q0 -184 -104 -284.5t-287 -100.5q-202 0 -334 80l49 115q136 -76 276 -76q121 0 188.5 61.5t67.5 181.5v238h-2q-43 -98 -123 -146.5t-169 -48.5q-140 0 -217.5 83 t-77.5 214zM227 1176l187 305h108l180 -305h-122l-117 208l-117 -208h-119zM256 340q0 -205 199 -205q99 0 172 87.5t73 223.5v240q0 119 -75.5 198t-167.5 79q-90 0 -145.5 -60t-55.5 -168v-395z" />
<glyph unicode="&#x11e;" horiz-adv-x="1183" d="M121 406v636q0 197 133.5 321t343.5 124q198 0 322 -104.5t124 -266.5v-104h-139v84q0 116 -83.5 190t-225.5 74q-152 0 -238 -91.5t-86 -232.5v-620q0 -148 86.5 -230t241.5 -82q160 0 233.5 76.5t73.5 200.5v254h-305v121h449v-394q0 -172 -124 -279.5t-329 -107.5 q-213 0 -345 111t-132 320zM299 1845h104q24 -172 199 -172q77 0 124 47t56 125h101q-6 -128 -90.5 -198t-198.5 -70q-130 0 -210.5 72t-84.5 196z" />
<glyph unicode="&#x11f;" horiz-adv-x="993" d="M113 317v437q0 99 47 172.5t117.5 108t152.5 34.5q86 0 169 -46.5t116 -137.5h2l6 159h123v-1044q0 -184 -104 -284.5t-287 -100.5q-202 0 -334 80l49 115q136 -76 276 -76q121 0 188.5 61.5t67.5 181.5v238h-2q-43 -98 -123 -146.5t-169 -48.5q-140 0 -217.5 83 t-77.5 214zM156 1454h104q24 -172 199 -172q77 0 124 47t56 125h100q-6 -128 -90 -198t-198 -70q-130 0 -210.5 72t-84.5 196zM256 340q0 -205 199 -205q99 0 172 87.5t73 223.5v240q0 119 -75.5 198t-167.5 79q-90 0 -145.5 -60t-55.5 -168v-395z" />
<glyph unicode="&#x120;" horiz-adv-x="1183" d="M121 406v636q0 197 133.5 321t343.5 124q198 0 322 -104.5t124 -266.5v-104h-139v84q0 116 -83.5 190t-225.5 74q-152 0 -238 -91.5t-86 -232.5v-620q0 -148 86.5 -230t241.5 -82q160 0 233.5 76.5t73.5 200.5v254h-305v121h449v-394q0 -172 -124 -279.5t-329 -107.5 q-213 0 -345 111t-132 320zM522 1622v219h133v-219h-133z" />
<glyph unicode="&#x121;" horiz-adv-x="993" d="M113 317v437q0 99 47 172.5t117.5 108t152.5 34.5q86 0 169 -46.5t116 -137.5h2l6 159h123v-1044q0 -184 -104 -284.5t-287 -100.5q-202 0 -334 80l49 115q136 -76 276 -76q121 0 188.5 61.5t67.5 181.5v238h-2q-43 -98 -123 -146.5t-169 -48.5q-140 0 -217.5 83 t-77.5 214zM256 340q0 -205 199 -205q99 0 172 87.5t73 223.5v240q0 119 -75.5 198t-167.5 79q-90 0 -145.5 -60t-55.5 -168v-395zM401 1231v219h134v-219h-134z" />
<glyph unicode="&#x122;" horiz-adv-x="1183" d="M121 406v636q0 197 133.5 321t343.5 124q198 0 322 -104.5t124 -266.5v-104h-139v84q0 116 -83.5 190t-225.5 74q-152 0 -238 -91.5t-86 -232.5v-620q0 -148 86.5 -230t241.5 -82q160 0 233.5 76.5t73.5 200.5v254h-305v121h449v-394q0 -172 -124 -279.5t-329 -107.5 q-213 0 -345 111t-132 320zM526 -393l11 317h131l-41 -317h-101z" />
<glyph unicode="&#x123;" horiz-adv-x="993" d="M113 317v437q0 99 47 172.5t117.5 108t152.5 34.5q86 0 169 -46.5t116 -137.5h2l6 159h123v-1044q0 -184 -104 -284.5t-287 -100.5q-202 0 -334 80l49 115q136 -76 276 -76q121 0 188.5 61.5t67.5 181.5v238h-2q-43 -98 -123 -146.5t-169 -48.5q-140 0 -217.5 83 t-77.5 214zM256 340q0 -205 199 -205q99 0 172 87.5t73 223.5v240q0 119 -75.5 198t-167.5 79q-90 0 -145.5 -60t-55.5 -168v-395zM397 1200v143l47 168h68l-27 -145h45v-166h-133z" />
<glyph unicode="&#x124;" horiz-adv-x="1249" d="M160 0v1460h151v-637h629v637h152v-1460h-152v686h-629v-686h-151zM385 1567l186 305h109l180 -305h-123l-116 209l-117 -209h-119z" />
<glyph unicode="&#x125;" horiz-adv-x="1019" d="M-8 1567l186 305h109l180 -305h-123l-117 209l-116 -209h-119zM152 0v1460h143v-590h4q44 97 128.5 147t186.5 50q120 0 191.5 -76t71.5 -190v-801h-144v758q0 103 -44 148.5t-136 45.5q-97 0 -177.5 -85.5t-80.5 -200.5v-666h-143z" />
<glyph unicode="&#x126;" horiz-adv-x="1310" d="M55 1141v94h133v225h152v-225h629v225h151v-225h135v-94h-135v-1141h-151v686h-629v-686h-152v1141h-133zM340 823h629v318h-629v-318z" />
<glyph unicode="&#x127;" horiz-adv-x="1019" d="M57 1198v88h95v174h143v-174h285v-88h-285v-328h4q44 97 128.5 147t186.5 50q120 0 191.5 -76t71.5 -190v-801h-144v758q0 103 -44 148.5t-136 45.5q-97 0 -177.5 -85.5t-80.5 -200.5v-666h-143v1198h-95z" />
<glyph unicode="&#x128;" horiz-adv-x="471" d="M-82 1589q10 79 55.5 133t116.5 54q49 0 148.5 -38t148.5 -38q38 0 59.5 24t36.5 70l74 -16q-13 -79 -57.5 -131t-112.5 -52q-53 0 -154 37t-143 37q-23 0 -38.5 -6.5t-25.5 -21t-14.5 -27.5t-11.5 -37zM160 0v1460h151v-1460h-151z" />
<glyph unicode="&#x129;" horiz-adv-x="446" d="M-94 1198q10 79 55.5 132.5t116.5 53.5q49 0 148.5 -37.5t148.5 -37.5q38 0 59.5 24t36.5 70l74 -17q-13 -79 -57 -130.5t-113 -51.5q-53 0 -154 37t-143 37q-23 0 -38.5 -6.5t-25.5 -21t-14.5 -27.5t-11.5 -37zM152 0v1042h143v-1042h-143z" />
<glyph unicode="&#x12a;" horiz-adv-x="471" d="M-39 1626v109h553v-109h-553zM160 0v1460h151v-1460h-151z" />
<glyph unicode="&#x12b;" horiz-adv-x="446" d="M-51 1235v108h553v-108h-553zM152 0v1042h143v-1042h-143z" />
<glyph unicode="&#x12c;" horiz-adv-x="471" d="M-53 1845h104q24 -172 199 -172q77 0 124 47t56 125h100q-6 -128 -90 -198t-198 -70q-130 0 -210.5 72t-84.5 196zM160 0v1460h151v-1460h-151z" />
<glyph unicode="&#x12d;" horiz-adv-x="446" d="M-68 1454h105q24 -172 199 -172q77 0 124 47t56 125h100q-6 -128 -90.5 -198t-198.5 -70q-130 0 -210.5 72t-84.5 196zM152 0v1042h143v-1042h-143z" />
<glyph unicode="&#x12e;" horiz-adv-x="471" d="M80 -219q0 65 30.5 122t75.5 97h-26v1460h151v-1460h-20q-109 -69 -109 -199q0 -108 101 -108q37 0 63 16l29 -74q-47 -28 -119 -28q-73 0 -124.5 45.5t-51.5 128.5z" />
<glyph unicode="&#x12f;" horiz-adv-x="446" d="M82 -219q0 65 30.5 122t75.5 97h-36v1042h143v-1038l2 -2l-2 -2h-2q-109 -69 -109 -199q0 -108 101 -108q37 0 63 16l29 -74q-47 -28 -119 -28q-73 0 -124.5 45.5t-51.5 128.5zM152 1221v219h143v-219h-143z" />
<glyph unicode="&#x130;" horiz-adv-x="471" d="M160 0v1460h151v-1460h-151zM164 1622v219h133v-219h-133z" />
<glyph unicode="&#x131;" horiz-adv-x="446" d="M152 0v1042h143v-1042h-143z" />
<glyph unicode="&#x132;" horiz-adv-x="1480" d="M160 0v1460h151v-1460h-151zM479 369v147h148v-135q0 -277 276 -277q75 0 130.5 23.5t86 64t44.5 86t14 97.5v1085h151v-1052q0 -196 -108 -314.5t-318 -118.5q-199 0 -311.5 100.5t-112.5 293.5z" />
<glyph unicode="&#x133;" horiz-adv-x="851" d="M152 0v1042h143v-1042h-143zM152 1221v219h143v-219h-143zM365 -260q28 -4 59 -4q77 0 105 41.5t28 120.5v1144h143v-1171q0 -256 -243 -256q-49 0 -92 6v119zM557 1221v219h143v-219h-143z" />
<glyph unicode="&#x134;" horiz-adv-x="1067" d="M70 369v147h147v-135q0 -277 277 -277q75 0 130.5 23.5t85.5 64t44 86t14 97.5v1085h152v-1052q0 -196 -108 -314.5t-318 -118.5q-199 0 -311.5 100.5t-112.5 293.5zM424 1581l186 305h109l180 -305h-123l-117 209l-116 -209h-119z" />
<glyph unicode="&#x135;" horiz-adv-x="468" d="M-18 -260q28 -4 59 -4q77 0 105 41.5t28 120.5v1144h143v-1171q0 -256 -243 -256q-48 0 -92 6v119zM-2 1176l186 305h109l180 -305h-123l-117 208l-116 -208h-119z" />
<glyph unicode="&#x136;" horiz-adv-x="1150" d="M160 0v1460h151v-770l602 770h166l-444 -563l448 -897h-172l-385 776l-215 -272v-504h-151zM500 -393l10 317h131l-41 -317h-100z" />
<glyph unicode="&#x137;" horiz-adv-x="911" d="M152 0v1460h143v-934l393 516h164l-281 -356l293 -686h-151l-246 578l-172 -218v-360h-143zM399 -393l11 317h131l-41 -317h-101z" />
<glyph unicode="&#x138;" horiz-adv-x="911" d="M152 0v1042h143v-516l393 516h164l-281 -356l293 -686h-151l-246 578l-172 -218v-360h-143z" />
<glyph unicode="&#x139;" horiz-adv-x="1026" d="M160 0v1460h151v-1329h641v-131h-792zM197 1571l180 299h151l-219 -299h-112z" />
<glyph unicode="&#x13a;" horiz-adv-x="561" d="M150 205v1255h143v-1231q0 -116 121 -116q38 0 88 8v-113q-59 -20 -135 -20q-103 0 -160 56t-57 161zM168 1567l180 299h152l-219 -299h-113z" />
<glyph unicode="&#x13b;" horiz-adv-x="1026" d="M160 0v1460h151v-1329h641v-131h-792zM469 -393l10 317h131l-41 -317h-100z" />
<glyph unicode="&#x13c;" horiz-adv-x="561" d="M150 205v1255h143v-1231q0 -116 121 -116q38 0 88 8v-113q-59 -20 -135 -20q-103 0 -160 56t-57 161zM238 -393l10 317h131l-41 -317h-100z" />
<glyph unicode="&#x13d;" horiz-adv-x="1026" d="M160 0v1460h151v-1329h641v-131h-792zM530 1128l15 332h125l-37 -332h-103z" />
<glyph unicode="&#x13e;" horiz-adv-x="561" d="M150 205v1255h143v-1231q0 -116 121 -116q38 0 88 8v-113q-59 -20 -135 -20q-103 0 -160 56t-57 161zM410 1128l14 332h125l-37 -332h-102z" />
<glyph unicode="&#x13f;" horiz-adv-x="1026" d="M160 0v1460h151v-1329h641v-131h-792z" />
<glyph unicode="&#x140;" horiz-adv-x="591" d="M150 205v1255h143v-1231q0 -116 121 -116q38 0 88 8v-113q-59 -20 -135 -20q-103 0 -160 56t-57 161z" />
<glyph unicode="&#x141;" horiz-adv-x="1062" d="M66 473v125l129 100v762h151v-641l258 203v-127l-258 -203v-561h641v-131h-792v573z" />
<glyph unicode="&#x142;" horiz-adv-x="595" d="M61 500v121l119 120v719h144v-571l147 153v-120l-147 -154v-539q0 -116 120 -116q38 0 88 8v-113q-59 -20 -135 -20q-103 0 -160 56t-57 161v416z" />
<glyph unicode="&#x143;" horiz-adv-x="1245" d="M160 0v1460h153l635 -1155h4v1155h135v-1460h-133l-655 1206h-4v-1206h-135zM522 1585l180 299h152l-219 -299h-113z" />
<glyph unicode="&#x144;" d="M152 0v1042h135v-176h2q49 101 135 151t190 50q116 0 189.5 -76.5t73.5 -189.5v-801h-144v762q0 101 -46 145.5t-134 44.5q-97 0 -177.5 -83t-80.5 -197v-672h-143zM449 1180l180 299h151l-219 -299h-112z" />
<glyph unicode="&#x145;" horiz-adv-x="1245" d="M160 0v1460h153l635 -1155h4v1155h135v-1460h-133l-655 1206h-4v-1206h-135zM547 -393l10 317h131l-41 -317h-100z" />
<glyph unicode="&#x146;" d="M152 0v1042h135v-176h2q49 101 135 151t190 50q116 0 189.5 -76.5t73.5 -189.5v-801h-144v762q0 101 -46 145.5t-134 44.5q-97 0 -177.5 -83t-80.5 -197v-672h-143zM434 -393l10 317h131l-40 -317h-101z" />
<glyph unicode="&#x147;" horiz-adv-x="1245" d="M160 0v1460h153l635 -1155h4v1155h135v-1460h-133l-655 1206h-4v-1206h-135zM381 1874h123l117 -209l116 209h123l-190 -303h-107z" />
<glyph unicode="&#x148;" d="M152 0v1042h135v-176h2q49 101 135 151t190 50q116 0 189.5 -76.5t73.5 -189.5v-801h-144v762q0 101 -46 145.5t-134 44.5q-97 0 -177.5 -83t-80.5 -197v-672h-143zM268 1483h123l117 -209l117 209h123l-191 -303h-106z" />
<glyph unicode="&#x14a;" horiz-adv-x="1245" d="M160 0v1460h153l635 -1155h4v1155h135v-1589q0 -256 -243 -256q-48 0 -92 6v119q28 -4 59 -4q77 0 105 41.5t28 120.5v120l-645 1188h-4v-1206h-135z" />
<glyph unicode="&#x14b;" d="M152 0v1042h135v-176h2q49 101 135 151t190 50q116 0 189.5 -76.5t73.5 -189.5v-930q0 -128 -62 -192t-182 -64q-49 0 -92 6v119q28 -4 59 -4q77 0 105 41.5t28 120.5v864q0 101 -46 145.5t-134 44.5q-97 0 -177.5 -83t-80.5 -197v-672h-143z" />
<glyph unicode="&#x14c;" horiz-adv-x="1200" d="M121 416v608q0 217 132.5 340t346.5 123q103 0 189 -27t151.5 -79.5t102 -136.5t36.5 -193v-611q0 -148 -63 -254.5t-170 -158.5t-246 -52q-103 0 -189 27t-151.5 79.5t-102 138t-36.5 196.5zM274 426q0 -146 86.5 -230.5t241.5 -84.5q150 0 237 87t87 230v621 q0 143 -88.5 224t-243.5 81q-152 0 -236 -88.5t-84 -243.5v-596zM332 1626v109h553v-109h-553z" />
<glyph unicode="&#x14d;" horiz-adv-x="970" d="M113 350v338q0 178 103 278.5t267 100.5q171 0 273 -96.5t102 -276.5v-338q0 -185 -102 -283t-269 -98q-172 0 -273 96.5t-101 278.5zM207 1235v108h553v-108h-553zM256 352q0 -260 233 -260q226 0 226 262v348q0 112 -57.5 182t-174.5 70t-172 -72.5t-55 -189.5v-340z " />
<glyph unicode="&#x14e;" horiz-adv-x="1200" d="M121 416v608q0 217 132.5 340t346.5 123q103 0 189 -27t151.5 -79.5t102 -136.5t36.5 -193v-611q0 -148 -63 -254.5t-170 -158.5t-246 -52q-103 0 -189 27t-151.5 79.5t-102 138t-36.5 196.5zM274 426q0 -146 86.5 -230.5t241.5 -84.5q150 0 237 87t87 230v621 q0 143 -88.5 224t-243.5 81q-152 0 -236 -88.5t-84 -243.5v-596zM305 1845h105q24 -172 198 -172q77 0 124 47t56 125h101q-6 -128 -90.5 -198t-198.5 -70q-130 0 -210.5 72t-84.5 196z" />
<glyph unicode="&#x14f;" horiz-adv-x="970" d="M113 350v338q0 178 103 278.5t267 100.5q171 0 273 -96.5t102 -276.5v-338q0 -185 -102 -283t-269 -98q-172 0 -273 96.5t-101 278.5zM193 1454h104q24 -172 199 -172q77 0 124 47t56 125h100q-6 -128 -90.5 -198t-198.5 -70q-130 0 -210 72t-84 196zM256 352 q0 -260 233 -260q226 0 226 262v348q0 112 -57.5 182t-174.5 70t-172 -72.5t-55 -189.5v-340z" />
<glyph unicode="&#x150;" horiz-adv-x="1200" d="M121 416v608q0 217 132.5 340t346.5 123q103 0 189 -27t151.5 -79.5t102 -136.5t36.5 -193v-611q0 -148 -63 -254.5t-170 -158.5t-246 -52q-103 0 -189 27t-151.5 79.5t-102 138t-36.5 196.5zM274 426q0 -146 86.5 -230.5t241.5 -84.5q150 0 237 87t87 230v621 q0 143 -88.5 224t-243.5 81q-152 0 -236 -88.5t-84 -243.5v-596zM393 1561l111 278h135l-139 -278h-107zM659 1561l117 278h135l-147 -278h-105z" />
<glyph unicode="&#x151;" horiz-adv-x="970" d="M113 350v338q0 178 103 278.5t267 100.5q171 0 273 -96.5t102 -276.5v-338q0 -185 -102 -283t-269 -98q-172 0 -273 96.5t-101 278.5zM256 352q0 -260 233 -260q226 0 226 262v348q0 112 -57.5 182t-174.5 70t-172 -72.5t-55 -189.5v-340zM283 1169l110 279h135 l-139 -279h-106zM549 1169l117 279h135l-148 -279h-104z" />
<glyph unicode="&#x152;" horiz-adv-x="1822" d="M121 416v612q0 216 127.5 337.5t337.5 121.5q116 0 204.5 -42.5t135.5 -123.5v139h792v-129h-641v-510h510v-131h-510v-559h643v-131h-794v158q-45 -84 -135 -132.5t-209 -48.5q-101 0 -184.5 26.5t-145.5 79t-96.5 137.5t-34.5 196zM274 426q0 -147 86.5 -234.5 t241.5 -87.5q149 0 236.5 90.5t87.5 233.5v627q0 141 -88.5 222t-243.5 81q-152 0 -236 -89.5t-84 -244.5v-598z" />
<glyph unicode="&#x153;" horiz-adv-x="1546" d="M113 350v338q0 178 103 278.5t267 100.5q101 0 178.5 -42t124.5 -118q47 76 127.5 118t178.5 42q164 0 258 -100.5t94 -272.5v-200h-586v-148q0 -250 266 -250q122 0 250 74l51 -94q-126 -101 -325 -101q-107 0 -189.5 40t-126.5 114q-46 -73 -123.5 -113.5t-173.5 -40.5 q-172 0 -273 96.5t-101 278.5zM256 356q0 -264 233 -264q226 0 226 262v348q0 112 -57.5 182t-174.5 70t-172 -72.5t-55 -189.5v-336zM858 598h449v113q0 49 -11.5 90.5t-36.5 77.5t-70.5 56.5t-107.5 20.5q-109 0 -166 -72.5t-57 -172.5v-113z" />
<glyph unicode="&#x154;" horiz-adv-x="1163" d="M160 0v1460h440q208 0 319 -112t111 -304q0 -165 -82 -275t-237 -134l362 -635h-166l-344 612h-252v-612h-151zM311 733h254q314 0 314 301q0 140 -73.5 220.5t-225.5 80.5h-269v-602zM446 1571l181 299h151l-219 -299h-113z" />
<glyph unicode="&#x155;" horiz-adv-x="698" d="M152 0v1042h135v-180h2q53 110 125 151.5t170 41.5q42 0 69 -6v-129q-39 6 -86 6q-53 0 -100.5 -16t-86 -48t-61.5 -85t-24 -122v-655h-143zM301 1180l180 299h152l-219 -299h-113z" />
<glyph unicode="&#x156;" horiz-adv-x="1163" d="M160 0v1460h440q208 0 319 -112t111 -304q0 -165 -82 -275t-237 -134l362 -635h-166l-344 612h-252v-612h-151zM311 733h254q314 0 314 301q0 140 -73.5 220.5t-225.5 80.5h-269v-602zM506 -393l10 317h131l-41 -317h-100z" />
<glyph unicode="&#x157;" horiz-adv-x="698" d="M152 0v1042h135v-180h2q53 110 125 151.5t170 41.5q42 0 69 -6v-129q-39 6 -86 6q-53 0 -100.5 -16t-86 -48t-61.5 -85t-24 -122v-655h-143zM164 -393l10 317h131l-41 -317h-100z" />
<glyph unicode="&#x158;" horiz-adv-x="1163" d="M160 0v1460h440q208 0 319 -112t111 -304q0 -165 -82 -275t-237 -134l362 -635h-166l-344 612h-252v-612h-151zM305 1874h123l117 -209l117 209h122l-190 -303h-107zM311 733h254q314 0 314 301q0 140 -73.5 220.5t-225.5 80.5h-269v-602z" />
<glyph unicode="&#x159;" horiz-adv-x="698" d="M141 1483h123l117 -209l117 209h123l-191 -303h-106zM152 0v1042h135v-180h2q53 110 125 151.5t170 41.5q42 0 69 -6v-129q-39 6 -86 6q-53 0 -100.5 -16t-86 -48t-61.5 -85t-24 -122v-655h-143z" />
<glyph unicode="&#x15a;" horiz-adv-x="1071" d="M59 166l101 104q63 -57 109 -88t115 -52t155 -21q128 0 203 70.5t75 180.5q0 58 -18 104.5t-53.5 80.5t-70 56t-85.5 46l-184 88q-275 128 -275 369q0 164 114.5 273.5t301.5 109.5q265 0 403 -168l-96 -96q-75 70 -146.5 102.5t-170.5 32.5q-112 0 -181 -61t-69 -177 q0 -86 50 -143t159 -109l170 -82q150 -72 227.5 -168.5t77.5 -232.5q0 -181 -126 -295.5t-323 -114.5q-291 0 -463 191zM483 1571l181 299h151l-219 -299h-113z" />
<glyph unicode="&#x15b;" horiz-adv-x="860" d="M68 127l88 98q64 -64 129 -98.5t145 -34.5q96 0 157.5 44t61.5 126q0 79 -42.5 124t-137.5 79l-123 45q-114 44 -167.5 111t-53.5 167q0 50 19.5 98.5t56.5 90t99.5 67t141.5 25.5q93 0 176 -27t134 -77l-80 -105q-111 94 -234 94q-80 0 -130 -41.5t-50 -107.5 t37.5 -105.5t126.5 -72.5l127 -52q235 -89 235 -292q0 -96 -51 -167.5t-130.5 -106t-174.5 -34.5q-224 0 -360 152zM365 1180l180 299h151l-219 -299h-112z" />
<glyph unicode="&#x15c;" horiz-adv-x="1071" d="M59 166l101 104q63 -57 109 -88t115 -52t155 -21q128 0 203 70.5t75 180.5q0 58 -18 104.5t-53.5 80.5t-70 56t-85.5 46l-184 88q-275 128 -275 369q0 164 114.5 273.5t301.5 109.5q265 0 403 -168l-96 -96q-75 70 -146.5 102.5t-170.5 32.5q-112 0 -181 -61t-69 -177 q0 -86 50 -143t159 -109l170 -82q150 -72 227.5 -168.5t77.5 -232.5q0 -181 -126 -295.5t-323 -114.5q-291 0 -463 191zM295 1567l186 305h109l180 -305h-123l-117 209l-116 -209h-119z" />
<glyph unicode="&#x15d;" horiz-adv-x="860" d="M68 127l88 98q64 -64 129 -98.5t145 -34.5q96 0 157.5 44t61.5 126q0 79 -42.5 124t-137.5 79l-123 45q-114 44 -167.5 111t-53.5 167q0 50 19.5 98.5t56.5 90t99.5 67t141.5 25.5q93 0 176 -27t134 -77l-80 -105q-111 94 -234 94q-80 0 -130 -41.5t-50 -107.5 t37.5 -105.5t126.5 -72.5l127 -52q235 -89 235 -292q0 -96 -51 -167.5t-130.5 -106t-174.5 -34.5q-224 0 -360 152zM205 1176l186 305h109l180 -305h-123l-117 208l-116 -208h-119z" />
<glyph unicode="&#x15e;" horiz-adv-x="1071" d="M59 166l101 104q63 -57 109 -88t115 -52t155 -21q128 0 203 70.5t75 180.5q0 58 -18 104.5t-53.5 80.5t-70 56t-85.5 46l-184 88q-275 128 -275 369q0 164 114.5 273.5t301.5 109.5q265 0 403 -168l-96 -96q-75 70 -146.5 102.5t-170.5 32.5q-112 0 -181 -61t-69 -177 q0 -86 50 -143t159 -109l170 -82q150 -72 227.5 -168.5t77.5 -232.5q0 -176 -120 -290t-308 -120l-25 -94q57 -2 100.5 -14.5t74 -43.5t30.5 -77q0 -64 -59.5 -106.5t-153.5 -42.5q-86 0 -166 24v80q91 -25 166 -25q102 0 102 68q0 63 -116 72l-68 4l39 157 q-257 18 -408 189z" />
<glyph unicode="&#x15f;" horiz-adv-x="860" d="M68 127l88 98q64 -64 129 -98.5t145 -34.5q96 0 157.5 44t61.5 126q0 79 -42.5 124t-137.5 79l-123 45q-114 44 -167.5 111t-53.5 167q0 50 19.5 98.5t56.5 90t99.5 67t141.5 25.5q93 0 176 -27t134 -77l-80 -105q-111 94 -234 94q-80 0 -130 -41.5t-50 -107.5 t37.5 -105.5t126.5 -72.5l127 -52q235 -89 235 -292q0 -135 -93.5 -216.5t-231.5 -89.5l-25 -96q57 -2 100.5 -14.5t74 -43.5t30.5 -77q0 -64 -59.5 -106.5t-153.5 -42.5q-86 0 -166 24v80q91 -25 166 -25q102 0 102 68q0 63 -116 72l-68 4l39 157q-195 15 -315 150z" />
<glyph unicode="&#x160;" horiz-adv-x="1071" d="M59 166l101 104q63 -57 109 -88t115 -52t155 -21q128 0 203 70.5t75 180.5q0 58 -18 104.5t-53.5 80.5t-70 56t-85.5 46l-184 88q-275 128 -275 369q0 164 114.5 273.5t301.5 109.5q265 0 403 -168l-96 -96q-75 70 -146.5 102.5t-170.5 32.5q-112 0 -181 -61t-69 -177 q0 -86 50 -143t159 -109l170 -82q150 -72 227.5 -168.5t77.5 -232.5q0 -181 -126 -295.5t-323 -114.5q-291 0 -463 191zM317 1872h123l117 -209l117 209h123l-191 -303h-106z" />
<glyph unicode="&#x161;" horiz-adv-x="845" d="M72 127l88 98q64 -64 129 -98.5t145 -34.5q96 0 157.5 44t61.5 126q0 79 -42.5 124t-137.5 79l-123 45q-114 44 -167.5 111t-53.5 167q0 50 19.5 98.5t56.5 90t99.5 67t141.5 25.5q93 0 176 -27t134 -77l-80 -105q-111 94 -234 94q-80 0 -130 -41.5t-50 -107.5 t37.5 -105.5t126.5 -72.5l127 -52q235 -89 235 -292q0 -96 -51 -167.5t-130.5 -106t-174.5 -34.5q-224 0 -360 152zM205 1483h123l116 -209l117 209h123l-190 -303h-107z" />
<glyph unicode="&#x162;" horiz-adv-x="1071" d="M47 1331v129h979v-129h-412v-1331h-151v1331h-416zM461 -393l10 317h131l-41 -317h-100z" />
<glyph unicode="&#x163;" horiz-adv-x="708" d="M66 924v114h170v303h143v-303h268v-114h-268v-693q0 -63 33 -91.5t102 -28.5q57 0 125 22v-119q-88 -32 -172 -32q-46 0 -84 9t-72.5 30.5t-54.5 63.5t-20 101v738h-170zM322 -393l10 317h131l-41 -317h-100z" />
<glyph unicode="&#x164;" horiz-adv-x="1071" d="M47 1331v129h979v-129h-412v-1331h-151v1331h-416zM295 1874h123l117 -209l116 209h123l-190 -303h-107z" />
<glyph unicode="&#x165;" horiz-adv-x="708" d="M66 924v114h170v303h143v-303h268v-114h-268v-693q0 -63 33 -91.5t102 -28.5q57 0 125 22v-119q-88 -32 -172 -32q-46 0 -84 9t-72.5 30.5t-54.5 63.5t-20 101v738h-170zM516 1151l12 309h123l-39 -309h-96z" />
<glyph unicode="&#x166;" horiz-adv-x="1071" d="M47 1331v129h979v-129h-412v-577h220v-101h-220v-653h-151v653h-227v101h227v577h-416z" />
<glyph unicode="&#x167;" horiz-adv-x="708" d="M66 924v114h170v303h143v-303h268v-114h-268v-285h133v-84h-133v-324q0 -63 33 -91.5t102 -28.5q57 0 125 22v-119q-88 -32 -172 -32q-46 0 -84 9t-72.5 30.5t-54.5 63.5t-20 101v369h-97v84h97v285h-170z" />
<glyph unicode="&#x168;" horiz-adv-x="1230" d="M150 408v1052h151v-1032q0 -88 27 -153t74 -101t102 -53t119 -17q147 0 232 86t81 230v1040h145v-1044q1 -205 -130 -323t-341 -118q-94 0 -174.5 24.5t-145.5 74.5t-102.5 135.5t-37.5 198.5zM295 1599q10 79 55.5 133t116.5 54q49 0 148.5 -38t148.5 -38q38 0 59.5 24 t36.5 70l74 -16q-13 -79 -57.5 -130.5t-112.5 -51.5q-53 0 -154 36.5t-143 36.5q-23 0 -38.5 -6.5t-25.5 -21t-14.5 -27.5t-11.5 -37z" />
<glyph unicode="&#x169;" d="M145 242v800h144v-757q0 -102 44 -147.5t134 -45.5q103 0 181.5 84t78.5 201v665h143v-1042h-129l-6 178h-4q-39 -94 -126.5 -148.5t-190.5 -54.5q-119 0 -194 74.5t-75 192.5zM188 1198q10 79 55.5 132.5t116.5 53.5q49 0 148.5 -37.5t148.5 -37.5q38 0 60 24t37 70 l73 -17q-13 -79 -57 -130.5t-113 -51.5q-53 0 -154 37t-143 37q-23 0 -38.5 -6.5t-25.5 -21t-14.5 -27.5t-11.5 -37z" />
<glyph unicode="&#x16a;" horiz-adv-x="1230" d="M150 408v1052h151v-1032q0 -88 27 -153t74 -101t102 -53t119 -17q147 0 232 86t81 230v1040h145v-1044q1 -205 -130 -323t-341 -118q-94 0 -174.5 24.5t-145.5 74.5t-102.5 135.5t-37.5 198.5zM338 1636v109h553v-109h-553z" />
<glyph unicode="&#x16b;" d="M145 242v800h144v-757q0 -102 44 -147.5t134 -45.5q103 0 181.5 84t78.5 201v665h143v-1042h-129l-6 178h-4q-39 -94 -126.5 -148.5t-190.5 -54.5q-119 0 -194 74.5t-75 192.5zM229 1235v108h553v-108h-553z" />
<glyph unicode="&#x16c;" horiz-adv-x="1230" d="M150 408v1052h151v-1032q0 -88 27 -153t74 -101t102 -53t119 -17q147 0 232 86t81 230v1040h145v-1044q1 -205 -130 -323t-341 -118q-94 0 -174.5 24.5t-145.5 74.5t-102.5 135.5t-37.5 198.5zM332 1855h104q24 -172 199 -172q77 0 124 47t56 125h100q-6 -128 -90 -198 t-198 -70q-130 0 -210.5 72t-84.5 196z" />
<glyph unicode="&#x16d;" d="M145 242v800h144v-757q0 -102 44 -147.5t134 -45.5q103 0 181.5 84t78.5 201v665h143v-1042h-129l-6 178h-4q-39 -94 -126.5 -148.5t-190.5 -54.5q-119 0 -194 74.5t-75 192.5zM215 1454h104q24 -172 199 -172q77 0 124 47t56 125h101q-6 -128 -90.5 -198t-198.5 -70 q-130 0 -210.5 72t-84.5 196z" />
<glyph unicode="&#x16e;" horiz-adv-x="1230" d="M150 408v1052h151v-1032q0 -88 27 -153t74 -101t102 -53t119 -17q147 0 232 86t81 230v1040h145v-1044q1 -205 -130 -323t-341 -118q-94 0 -174.5 24.5t-145.5 74.5t-102.5 135.5t-37.5 198.5zM440 1729q0 75 49.5 127.5t122.5 52.5q82 0 129 -47t47 -123t-49.5 -129.5 t-124.5 -53.5q-82 0 -128 50.5t-46 122.5zM516 1729q0 -51 26.5 -79t69.5 -28q46 0 74.5 29t28.5 82t-28 82.5t-77 29.5q-44 0 -69 -31.5t-25 -84.5z" />
<glyph unicode="&#x16f;" d="M145 242v800h144v-757q0 -102 44 -147.5t134 -45.5q103 0 181.5 84t78.5 201v665h143v-1042h-129l-6 178h-4q-39 -94 -126.5 -148.5t-190.5 -54.5q-119 0 -194 74.5t-75 192.5zM332 1327q0 75 49.5 127.5t122.5 52.5q82 0 129 -47t47 -123t-49.5 -129t-124.5 -53 q-82 0 -128 50t-46 122zM408 1327q0 -51 26.5 -78.5t69.5 -27.5q46 0 74 28.5t28 81.5t-27.5 83t-76.5 30q-44 0 -69 -32t-25 -85z" />
<glyph unicode="&#x170;" horiz-adv-x="1230" d="M150 408v1052h151v-1032q0 -88 27 -153t74 -101t102 -53t119 -17q147 0 232 86t81 230v1040h145v-1044q1 -205 -130 -323t-341 -118q-94 0 -174.5 24.5t-145.5 74.5t-102.5 135.5t-37.5 198.5zM389 1571l111 278h135l-139 -278h-107zM655 1571l117 278h135l-147 -278 h-105z" />
<glyph unicode="&#x171;" d="M145 242v800h144v-757q0 -102 44 -147.5t134 -45.5q103 0 181.5 84t78.5 201v665h143v-1042h-129l-6 178h-4q-39 -94 -126.5 -148.5t-190.5 -54.5q-119 0 -194 74.5t-75 192.5zM317 1169l111 279h135l-139 -279h-107zM584 1169l116 279h136l-148 -279h-104z" />
<glyph unicode="&#x172;" horiz-adv-x="1230" d="M150 408v1052h151v-1032q0 -88 27 -153t74 -101t102 -53t119 -17q147 0 232 86t81 230v1040h145v-1044q1 -167 -87.5 -277.5t-239.5 -146.5q-101 -88 -101 -195q0 -49 26 -78.5t77 -29.5q24 0 54 9.5t48 22.5l39 -71q-59 -45 -160 -45q-78 0 -131 43.5t-53 126.5 q0 108 94 202q-12 -2 -37 -2q-94 0 -174.5 24.5t-145.5 74.5t-102.5 135.5t-37.5 198.5z" />
<glyph unicode="&#x173;" d="M145 242v800h144v-757q0 -102 44 -147.5t134 -45.5q103 0 181.5 84t78.5 201v665h143v-1042h-30q-58 -30 -99 -82.5t-41 -120.5q0 -49 25.5 -77.5t77.5 -28.5q24 0 54.5 9t47.5 21l39 -71q-59 -45 -160 -45q-78 0 -131 43.5t-53 126.5q0 70 41 133t100 102l-6 168h-4 q-39 -94 -126.5 -148.5t-190.5 -54.5q-119 0 -194 74.5t-75 192.5z" />
<glyph unicode="&#x174;" horiz-adv-x="1576" d="M63 1460h152l240 -1202h4l256 1202h164l247 -1198h4l238 1198h143l-311 -1466h-149l-258 1233h-7l-260 -1233h-151zM549 1567l186 305h109l180 -305h-123l-117 209l-116 -209h-119z" />
<glyph unicode="&#x175;" horiz-adv-x="1359" d="M59 1042h150l184 -811h6l217 811h146l207 -811h4l196 811h134l-269 -1044h-135l-213 870h-6l-225 -870h-136zM440 1176l187 305h108l180 -305h-122l-117 208l-117 -208h-119z" />
<glyph unicode="&#x176;" horiz-adv-x="1048" d="M57 1460h158l320 -696l311 696h147l-393 -844v-616h-154v618zM291 1567l186 305h109l180 -305h-123l-117 209l-116 -209h-119z" />
<glyph unicode="&#x177;" horiz-adv-x="872" d="M47 1042h152l250 -823h2l247 823h131l-364 -1163q-77 -268 -285 -268q-74 0 -129 16l10 121q65 -14 109 -14q57 0 92.5 31.5t63.5 107.5l47 160zM195 1176l186 305h108l181 -305h-123l-117 208l-117 -208h-118z" />
<glyph unicode="&#x178;" horiz-adv-x="1048" d="M57 1460h158l320 -696l311 696h147l-393 -844v-616h-154v618zM317 1620v213h129v-213h-129zM633 1620v213h127v-213h-127z" />
<glyph unicode="&#x179;" horiz-adv-x="1015" d="M96 0v98l647 1239h-630v123h809v-104l-646 -1227h637v-129h-817zM449 1571l180 299h151l-219 -299h-112z" />
<glyph unicode="&#x17a;" horiz-adv-x="837" d="M84 0v90l500 840h-488v112h656l-2 -96l-492 -833h494v-113h-668zM309 1180l180 299h152l-219 -299h-113z" />
<glyph unicode="&#x17b;" horiz-adv-x="1015" d="M96 0v98l647 1239h-630v123h809v-104l-646 -1227h637v-129h-817zM453 1622v219h133v-219h-133z" />
<glyph unicode="&#x17c;" horiz-adv-x="837" d="M84 0v90l500 840h-488v112h656l-2 -96l-492 -833h494v-113h-668zM350 1231v219h133v-219h-133z" />
<glyph unicode="&#x17d;" horiz-adv-x="1015" d="M96 0v98l647 1239h-630v123h809v-104l-646 -1227h637v-129h-817zM283 1872h123l116 -209l117 209h123l-191 -303h-106z" />
<glyph unicode="&#x17e;" horiz-adv-x="837" d="M84 0v90l500 840h-488v112h656l-2 -96l-492 -833h494v-113h-668zM188 1483h123l117 -209l117 209h123l-191 -303h-106z" />
<glyph unicode="&#x192;" horiz-adv-x="745" d="M23 -379l6 117q28 -4 59 -4q77 0 104.5 39.5t34.5 122.5l74 950h-174l6 106h174l21 275q10 123 83.5 193.5t182.5 70.5q70 0 125 -16l-6 -109q-44 12 -97 12q-60 0 -100 -37t-47 -112l-23 -277h209l-8 -106h-207l-71 -971q-8 -126 -69.5 -194t-176.5 -68q-42 0 -100 8z " />
<glyph unicode="&#x1fa;" horiz-adv-x="1163" d="M55 0l441 1464h182l432 -1464h-154l-133 461h-489l-135 -461h-144zM365 582h423l-208 725h-2zM410 1694q0 74 49 129l178 215l106 -41l-137 -131q76 -6 115 -50.5t39 -111.5q0 -76 -48.5 -126t-125.5 -50q-86 0 -131 49.5t-45 116.5zM487 1696q0 -53 27.5 -80t69.5 -27 q44 0 73 29.5t29 81.5t-28 81t-74 29q-44 0 -70.5 -31.5t-26.5 -82.5z" />
<glyph unicode="&#x1fb;" horiz-adv-x="960" d="M94 274q0 87 35.5 154t93 104t122 55.5t132.5 18.5h199v178q0 89 -54.5 134t-150.5 45q-90 0 -152.5 -43t-62.5 -123v-60h-129v64q0 127 101.5 196.5t258.5 69.5q95 0 168.5 -28t119.5 -91.5t46 -156.5v-527q0 -9 10 -264h-133l-8 166h-4q-24 -53 -62 -92t-81.5 -59 t-83 -29t-78.5 -9q-122 0 -204.5 77.5t-82.5 219.5zM242 295q0 -100 54 -153.5t134 -53.5q102 0 174 73.5t72 184.5v162h-176q-50 0 -92 -9.5t-81.5 -31.5t-62 -66t-22.5 -106zM299 1321q0 74 49 129l178 215l107 -41l-137 -131q76 -6 114.5 -50.5t38.5 -111.5 q0 -76 -48.5 -126t-125.5 -50q-86 0 -131 49.5t-45 116.5zM377 1323q0 -53 27 -79.5t69 -26.5q45 0 73.5 29t28.5 81t-28 81.5t-74 29.5q-44 0 -70 -32t-26 -83z" />
<glyph unicode="&#x1fc;" horiz-adv-x="1703" d="M45 0l698 1460h881v-129h-641v-510h510v-131h-510v-559h641v-131h-793v440l-421 2l-209 -442h-156zM463 559h368v768h-4zM862 1581l180 299h152l-219 -299h-113z" />
<glyph unicode="&#x1fd;" horiz-adv-x="1503" d="M94 274q0 87 35.5 154t93 104t122 55.5t132.5 18.5h199v178q0 89 -56.5 134t-152.5 45q-89 0 -150 -43t-61 -123v-60h-129v64q0 128 99.5 197t256.5 69q103 0 179 -35t102 -110q92 145 295 145q162 0 255 -96.5t93 -268.5v-202h-588v-152q0 -252 268 -252q121 0 252 76 l52 -96q-121 -101 -326 -101q-129 0 -217.5 51.5t-124.5 157.5q-27 -62 -70.5 -106t-93 -65t-90.5 -29.5t-80 -8.5q-125 0 -210 78.5t-85 220.5zM242 295q0 -101 54 -154t138 -53q100 0 171 73.5t71 184.5v162h-164q-270 0 -270 -213zM692 1180l180 299h152l-219 -299h-113z M819 606h451v105q0 49 -11.5 90.5t-36.5 77.5t-69.5 56.5t-105.5 20.5q-110 0 -169 -71.5t-59 -169.5v-109z" />
<glyph unicode="&#x1fe;" horiz-adv-x="1196" d="M121 416v608q0 217 132.5 340t346.5 123q168 0 287 -70l63 133l86 -37l-73 -153q116 -113 116 -309v-611q0 -148 -63 -254.5t-170 -158.5t-246 -52q-153 0 -270 60l-70 -148l-84 39l76 160q-131 118 -131 330zM274 426q0 -111 50 -188l499 1046q-89 70 -229 70 q-152 0 -236 -88.5t-84 -243.5v-596zM393 168q82 -57 209 -57q150 0 237 87t87 230v621q0 90 -37 157zM535 1569l180 299h151l-219 -299h-112z" />
<glyph unicode="&#x1ff;" horiz-adv-x="970" d="M113 350v338q0 178 103 278.5t267 100.5q121 0 207 -47l55 117l80 -39l-63 -133q96 -99 96 -271v-338q0 -185 -102 -283t-269 -98q-103 0 -184 35l-59 -123l-78 37l63 133q-116 96 -116 293zM256 352q0 -104 35 -164l344 717q-58 49 -152 49q-117 0 -172 -72.5 t-55 -189.5v-340zM356 123q54 -31 133 -31q226 0 226 262v348q0 60 -23 121zM412 1180l180 299h151l-219 -299h-112z" />
<glyph unicode="&#x218;" horiz-adv-x="1071" d="M59 166l101 104q63 -57 109 -88t115 -52t155 -21q128 0 203 70.5t75 180.5q0 58 -18 104.5t-53.5 80.5t-70 56t-85.5 46l-184 88q-275 128 -275 369q0 164 114.5 273.5t301.5 109.5q265 0 403 -168l-96 -96q-75 70 -146.5 102.5t-170.5 32.5q-112 0 -181 -61t-69 -177 q0 -86 50 -143t159 -109l170 -82q150 -72 227.5 -168.5t77.5 -232.5q0 -181 -126 -295.5t-323 -114.5q-291 0 -463 191zM469 -393l10 317h131l-41 -317h-100z" />
<glyph unicode="&#x219;" horiz-adv-x="860" d="M68 127l88 98q64 -64 129 -98.5t145 -34.5q96 0 157.5 44t61.5 126q0 79 -42.5 124t-137.5 79l-123 45q-114 44 -167.5 111t-53.5 167q0 50 19.5 98.5t56.5 90t99.5 67t141.5 25.5q93 0 176 -27t134 -77l-80 -105q-111 94 -234 94q-80 0 -130 -41.5t-50 -107.5 t37.5 -105.5t126.5 -72.5l127 -52q235 -89 235 -292q0 -96 -51 -167.5t-130.5 -106t-174.5 -34.5q-224 0 -360 152zM369 -393l10 317h131l-41 -317h-100z" />
<glyph unicode="&#x21a;" horiz-adv-x="1071" d="M47 1331v129h979v-129h-412v-1331h-151v1331h-416zM461 -393l10 317h131l-41 -317h-100z" />
<glyph unicode="&#x21b;" horiz-adv-x="708" d="M66 924v114h170v303h143v-303h268v-114h-268v-693q0 -63 33 -91.5t102 -28.5q57 0 125 22v-119q-88 -32 -172 -32q-46 0 -84 9t-72.5 30.5t-54.5 63.5t-20 101v738h-170zM322 -393l10 317h131l-41 -317h-100z" />
<glyph unicode="&#x2c6;" horiz-adv-x="737" d="M135 1176l187 305h108l180 -305h-123l-116 208l-117 -208h-119z" />
<glyph unicode="&#x2c7;" horiz-adv-x="739" d="M137 1483h123l117 -209l117 209h122l-190 -303h-107z" />
<glyph unicode="&#x2d8;" horiz-adv-x="747" d="M82 1454h104q24 -172 199 -172q77 0 124 47t56 125h101q-6 -128 -90.5 -198t-198.5 -70q-130 0 -210.5 72t-84.5 196z" />
<glyph unicode="&#x2d9;" horiz-adv-x="391" d="M129 1231v219h133v-219h-133z" />
<glyph unicode="&#x2da;" horiz-adv-x="559" d="M115 1327q0 75 49.5 127.5t122.5 52.5q82 0 129 -47t47 -123t-49.5 -129t-124.5 -53q-82 0 -128 50t-46 122zM190 1327q0 -51 27 -78.5t70 -27.5q46 0 74 28.5t28 81.5t-27.5 83t-76.5 30q-44 0 -69.5 -32t-25.5 -85z" />
<glyph unicode="&#x2db;" horiz-adv-x="675" d="M143 -225q0 89 64 164.5t137 101.5l49 -37q-61 -29 -105 -83t-44 -124q0 -106 102 -106q25 0 55.5 9t47.5 21l38 -71q-59 -45 -159 -45q-78 0 -131.5 43.5t-53.5 126.5z" />
<glyph unicode="&#x2dc;" horiz-adv-x="782" d="M86 1198q10 79 55.5 132.5t116.5 53.5q49 0 148.5 -37.5t148.5 -37.5q38 0 59.5 24t36.5 70l74 -17q-13 -79 -57 -130.5t-113 -51.5q-53 0 -154 37t-143 37q-23 0 -38.5 -6.5t-25.5 -21t-14.5 -27.5t-11.5 -37z" />
<glyph unicode="&#x2dd;" horiz-adv-x="755" d="M127 1169l111 279h135l-140 -279h-106zM393 1169l117 279h135l-147 -279h-105z" />
<glyph unicode="&#x3c0;" horiz-adv-x="1073" d="M61 928l17 116h913v-116h-172v-690q0 -121 107 -121q40 0 86 12v-119q-68 -22 -129 -22q-94 0 -146.5 55t-52.5 166v719h-322q-18 -557 -49 -928h-141q39 403 49 928h-160z" />
<glyph unicode="&#x1e80;" horiz-adv-x="1576" d="M63 1460h152l240 -1202h4l256 1202h164l247 -1198h4l238 1198h143l-311 -1466h-149l-258 1233h-7l-260 -1233h-151zM512 1870h154l184 -299h-115z" />
<glyph unicode="&#x1e81;" horiz-adv-x="1359" d="M59 1042h150l184 -811h6l217 811h146l207 -811h4l196 811h134l-269 -1044h-135l-213 870h-6l-225 -870h-136zM406 1479h153l184 -299h-114z" />
<glyph unicode="&#x1e82;" horiz-adv-x="1576" d="M63 1460h152l240 -1202h4l256 1202h164l247 -1198h4l238 1198h143l-311 -1466h-149l-258 1233h-7l-260 -1233h-151zM737 1571l181 299h151l-219 -299h-113z" />
<glyph unicode="&#x1e83;" horiz-adv-x="1359" d="M59 1042h150l184 -811h6l217 811h146l207 -811h4l196 811h134l-269 -1044h-135l-213 870h-6l-225 -870h-136zM629 1180l180 299h152l-220 -299h-112z" />
<glyph unicode="&#x1e84;" horiz-adv-x="1576" d="M63 1460h152l240 -1202h4l256 1202h164l247 -1198h4l238 1198h143l-311 -1466h-149l-258 1233h-7l-260 -1233h-151zM565 1636v213h129v-213h-129zM881 1636v213h127v-213h-127z" />
<glyph unicode="&#x1e85;" horiz-adv-x="1359" d="M59 1042h150l184 -811h6l217 811h146l207 -811h4l196 811h134l-269 -1044h-135l-213 870h-6l-225 -870h-136zM457 1231v213h129v-213h-129zM772 1231v213h127v-213h-127z" />
<glyph unicode="&#x1ef2;" horiz-adv-x="1048" d="M57 1460h158l320 -696l311 696h147l-393 -844v-616h-154v618zM258 1870h154l184 -299h-115z" />
<glyph unicode="&#x1ef3;" horiz-adv-x="872" d="M47 1042h152l250 -823h2l247 823h131l-364 -1163q-77 -268 -285 -268q-74 0 -129 16l10 121q65 -14 109 -14q57 0 92.5 31.5t63.5 107.5l47 160zM215 1479h154l184 -299h-115z" />
<glyph unicode="&#x2000;" horiz-adv-x="1019" />
<glyph unicode="&#x2001;" horiz-adv-x="2038" />
<glyph unicode="&#x2002;" horiz-adv-x="1019" />
<glyph unicode="&#x2003;" horiz-adv-x="2038" />
<glyph unicode="&#x2004;" horiz-adv-x="679" />
<glyph unicode="&#x2005;" horiz-adv-x="509" />
<glyph unicode="&#x2006;" horiz-adv-x="339" />
<glyph unicode="&#x2007;" horiz-adv-x="339" />
<glyph unicode="&#x2008;" horiz-adv-x="254" />
<glyph unicode="&#x2009;" horiz-adv-x="407" />
<glyph unicode="&#x200a;" horiz-adv-x="113" />
<glyph unicode="&#x2010;" horiz-adv-x="581" d="M78 549v115h426v-115h-426z" />
<glyph unicode="&#x2011;" horiz-adv-x="581" d="M78 549v115h426v-115h-426z" />
<glyph unicode="&#x2012;" horiz-adv-x="581" d="M78 549v115h426v-115h-426z" />
<glyph unicode="&#x2013;" horiz-adv-x="944" d="M0 559v98h944v-98h-944z" />
<glyph unicode="&#x2014;" horiz-adv-x="1595" d="M0 559v98h1595v-98h-1595z" />
<glyph unicode="&#x2018;" horiz-adv-x="389" d="M123 1030v213l51 219h76l-39 -213h51v-219h-139z" />
<glyph unicode="&#x2019;" horiz-adv-x="391" d="M127 1239v221h139v-213l-51 -219h-76l39 211h-51z" />
<glyph unicode="&#x201a;" horiz-adv-x="389" d="M127 139l49 90l88 -131l-24 -225l-58 -80l-24 139v74z" />
<glyph unicode="&#x201c;" horiz-adv-x="675" d="M123 1030v213l51 219h76l-39 -213h51v-219h-139zM414 1030v213l55 219h72l-37 -213h49v-219h-139z" />
<glyph unicode="&#x201d;" horiz-adv-x="675" d="M127 1239v221h137v-213l-53 -219h-74l39 211h-49zM414 1239v221h141v-213l-53 -219h-74l37 211h-51z" />
<glyph unicode="&#x201e;" horiz-adv-x="675" d="M127 6v223h137v-217l-53 -219h-74l39 213h-49zM414 6v223h141v-217l-53 -219h-74l37 213h-51z" />
<glyph unicode="&#x2020;" horiz-adv-x="1021" d="M123 991v107h332v364h116v-364h328v-107h-328v-1274h-116v1274h-332z" />
<glyph unicode="&#x2021;" horiz-adv-x="1021" d="M123 106v103h332v782h-332v107h332v364h116v-364h328v-107h-328v-782h328v-103h-328v-389h-116v389h-332z" />
<glyph unicode="&#x2022;" horiz-adv-x="784" d="M164 717q0 95 67 161t162 66q93 0 159 -66t66 -161q0 -93 -66 -159t-159 -66q-95 0 -162 66t-67 159z" />
<glyph unicode="&#x2026;" horiz-adv-x="1136" d="M133 0v227h141v-227h-141zM500 0v227h139v-227h-139zM864 0v227h142v-227h-142z" />
<glyph unicode="&#x202f;" horiz-adv-x="407" />
<glyph unicode="&#x2030;" horiz-adv-x="2035" d="M100 967v282q0 115 69.5 176.5t176.5 61.5t178.5 -60.5t71.5 -177.5v-286q0 -109 -73.5 -171.5t-176.5 -62.5q-111 0 -178.5 63.5t-67.5 174.5zM209 952q0 -58 35.5 -94.5t103.5 -36.5q64 0 100.5 39t36.5 94v312q0 53 -37 91t-100 38q-66 0 -102.5 -37.5t-36.5 -91.5 v-314zM297 -6l750 1485h98l-748 -1485h-100zM821 209v278q0 115 70.5 181.5t177.5 66.5t177.5 -60.5t70.5 -176.5v-287q0 -109 -73.5 -171.5t-176.5 -62.5q-109 0 -177.5 60t-68.5 172zM932 203q0 -58 35 -94.5t100 -36.5q66 0 102.5 39.5t36.5 91.5v313q0 51 -37 90 t-102 39q-64 0 -99.5 -37.5t-35.5 -91.5v-313zM1436 209v278q0 115 70.5 181.5t176.5 66.5q107 0 177.5 -60.5t70.5 -176.5v-287q0 -109 -73.5 -171.5t-178.5 -62.5q-107 0 -175 60.5t-68 171.5zM1544 203q0 -58 35.5 -94.5t101.5 -36.5t103 39.5t37 91.5v313q0 51 -37.5 90 t-102.5 39q-64 0 -100.5 -37.5t-36.5 -91.5v-313z" />
<glyph unicode="&#x2039;" horiz-adv-x="509" d="M76 557l235 330l82 -56l-160 -272l164 -274l-84 -52z" />
<glyph unicode="&#x203a;" horiz-adv-x="509" d="M76 836l84 51l237 -324l-235 -330l-84 54l162 274z" />
<glyph unicode="&#x2044;" horiz-adv-x="233" d="M-317 -6l776 1476h90l-776 -1476h-90z" />
<glyph unicode="&#x205f;" horiz-adv-x="509" />
<glyph unicode="&#x20aa;" horiz-adv-x="860" d="M53 0v1444h283q65 0 106.5 -11t75.5 -42.5t49 -92.5t15 -157v-891h-136v903q0 100 -59 100h-182v-1253h-152zM258 0v1194h133v-1001h182q62 0 62 98v1153h172v-1110q0 -96 -15.5 -161.5t-48 -103t-76 -53.5t-106.5 -16h-303z" />
<glyph unicode="&#x20ac;" horiz-adv-x="1267" d="M102 535v98h166v198h-166v101h166v121q0 190 129 312t332 122q197 0 318.5 -103.5t121.5 -265.5v-102h-137v90q0 120 -78.5 192t-228.5 72q-146 0 -223.5 -88.5t-77.5 -226.5v-123h469v-101h-469v-198h469v-98h-469v-127q0 -147 81 -231.5t230 -84.5q147 0 222 74t75 194 v70h137v-82q0 -170 -120.5 -271.5t-319.5 -101.5q-207 0 -334 109t-127 313v138h-166z" />
<glyph unicode="&#x2122;" horiz-adv-x="1212" d="M70 1384v80h440v-80h-174v-571h-90v571h-176zM598 813v651h104l150 -307l143 307h103v-651h-84l-2 496l-131 -279h-64l-135 287v-504h-84z" />
<glyph unicode="&#x2202;" horiz-adv-x="968" d="M113 334v348q0 163 92.5 258.5t243.5 106.5q71 0 122 -23l-286 438l155 25q279 -422 359 -559q26 -42 42.5 -108t16.5 -134v-338q0 -184 -99.5 -278.5t-273.5 -94.5q-173 0 -272.5 90t-99.5 269zM258 328q0 -110 55.5 -175t173.5 -65q119 0 172.5 69t53.5 187v348 q0 246 -215 246q-119 0 -179.5 -69.5t-60.5 -184.5v-356z" />
<glyph unicode="&#x2206;" horiz-adv-x="1122" d="M72 0v78l428 1386h184l424 -1386v-78h-1036zM231 127h709l-352 1182h-6z" />
<glyph unicode="&#x220f;" horiz-adv-x="1255" d="M86 1325v135h1083v-135h-159v-1597h-140v1597h-471v-1597h-141v1597h-172z" />
<glyph unicode="&#x2211;" horiz-adv-x="1011" d="M96 1354v108h813v-131h-616l547 -667l2 -58l-553 -747h622v-131h-809v108l582 795z" />
<glyph unicode="&#x221a;" horiz-adv-x="1095" d="M47 1044h154l229 -847h4l498 1263h137l-582 -1464h-133z" />
<glyph unicode="&#x221e;" horiz-adv-x="1693" d="M90 657q0 142 101 236t251 94q117 0 215 -63t197 -179q228 228 412 228q154 0 246 -82.5t92 -216.5q0 -152 -102 -247t-261 -95q-115 0 -211 65t-188 176q-217 -237 -406 -237q-155 0 -250.5 93t-95.5 228zM197 680q0 -104 61 -177t168 -73q93 0 177 58.5t185 166.5 q-170 240 -350 240q-100 0 -170.5 -62.5t-70.5 -152.5zM907 657q83 -108 163.5 -169.5t176.5 -61.5q108 0 179 67.5t71 165.5q0 101 -60 162.5t-175 61.5q-78 0 -165 -60.5t-190 -165.5z" />
<glyph unicode="&#x222b;" horiz-adv-x="759" d="M6 -375l8 109q54 -6 76 -6q39 0 65 11.5t39.5 35.5t18.5 49t8 65l76 1338q7 123 77.5 193.5t180.5 70.5q68 0 125 -16l-10 -109q-44 12 -97 12q-61 0 -101 -37.5t-44 -111.5l-72 -1354q-16 -260 -239 -260q-53 0 -111 10z" />
<glyph unicode="&#x2248;" horiz-adv-x="1105" d="M147 418q11 79 53 130.5t113 51.5q50 0 239 -34t239 -34q33 0 53 23.5t35 67.5l79 -19q-15 -82 -56.5 -133t-110.5 -51q-47 0 -240 36t-242 36q-37 0 -54 -22.5t-28 -66.5zM147 733q11 79 53 130.5t113 51.5q50 0 239 -34.5t239 -34.5q33 0 53 23.5t35 68.5l79 -18 q-15 -82 -56.5 -133.5t-110.5 -51.5q-47 0 -240 35t-242 35q-37 0 -54 -21.5t-28 -64.5z" />
<glyph unicode="&#x2260;" horiz-adv-x="1105" d="M162 436v105h317q8 24 42.5 106.5t43.5 110.5h-403v98h450q58 134 74 186l92 -32l-61 -154h227v-98h-270l-90 -217h360v-105h-403q-7 -20 -44 -106t-44 -107l-88 29l71 184h-274z" />
<glyph unicode="&#x2264;" horiz-adv-x="1105" d="M160 127v102h782v-102h-782zM178 723v82l703 319l43 -94l-602 -266q63 -31 293.5 -136t302.5 -141l-48 -92z" />
<glyph unicode="&#x2265;" horiz-adv-x="1105" d="M162 127v102h782v-102h-782zM178 1030l45 94l705 -319v-82l-695 -328l-47 92l598 277q-78 38 -318 141t-288 125z" />
<glyph unicode="&#x25ca;" horiz-adv-x="1007" d="M84 694v27l375 741h88l375 -741v-27l-375 -696h-88zM199 713l309 -582l305 574l-315 612z" />
<glyph unicode="&#xe000;" horiz-adv-x="1040" d="M0 1040h1040v-1040h-1040v1040z" />
<glyph unicode="&#xf8ff;" horiz-adv-x="2215" d="M53 1155q0 76 36.5 145t97.5 118.5t131.5 84.5t146.5 53q141 0 397 -10t357 -12q33 0 135 -4q10 0 45 -1t43 -1q28 -2 71 6q14 9 29 26.5t21 30.5l18 -6q-15 -36 -53 -74q-67 -33 -121 -47t-127 -14q-103 0 -307 8q-5 -28 -9 -149t-8 -142l-4 -108q45 -1 371 -15t498 -14 l77 -2q193 1 263 33l10 -12q-115 -49 -230.5 -71t-261.5 -22q-118 0 -323 7q-6 -41 -16.5 -213t-12.5 -191q0 -19 -4 -113l324 21h8l8 -6l-76 -113l-16 10l51 74l-301 -18q-15 -265 -29 -416q-5 -38 -43.5 -91.5t-77.5 -70.5l3 -2q66 10 196.5 11.5t165.5 4.5v-2 q0 -23 -18.5 -47.5t-42.5 -27.5q-25 -4 -95 -4l-338 6l-38 -4l-15 14q26 8 51.5 15t36.5 10q36 12 60.5 29t36.5 38t16 33t8 29q18 138 31 473l-215 -6l4 22l213 12q17 285 22 473l86 50q-116 5 -391 14q-1 -61 -14 -299q-7 -128 -42 -234t-83 -170.5t-105 -109.5 t-105.5 -62.5t-88.5 -17.5q-63 0 -173.5 32t-156.5 58l51 80q5 -1 75 -28t149 -50.5t123 -21.5q69 1 133.5 64t103 162.5t35.5 201.5l10 397q-21 0 -65.5 2t-67.5 2q-130 0 -234 -93.5t-104 -223.5q43 -90 168 -146q0 -10 -13.5 -40t-21.5 -40q-146 63 -160 209 q0 157 120.5 268t312.5 144h67l12 358l89 39q-45 2 -159 7t-202.5 7.5t-173.5 2.5q-129 0 -233.5 -91.5t-104.5 -220.5q43 -84 172 -135q0 -6 -10 -23t-23 -36.5t-14 -20.5q-149 61 -162 207z" />
</font>
</defs>
</svg>
